<?xml version="1.0" encoding="UTF-8"?>
<svg id="Layer_1" xmlns="http://www.w3.org/2000/svg" version="1.1" viewBox="0 0 1024 1024">
  <!-- Generator: Adobe Illustrator 29.6.0, SVG Export Plug-In . SVG Version: 2.1.1 Build 207)  -->
  <defs>
    <style>
      .st0 {
        opacity: .25;
      }

      .st0, .st1 {
        fill: #343231;
      }
    </style>
  </defs>
  <g>
    <path class="st0" d="M598.75,177.2h-.02s0,0,.01,0h0Z"/>
    <path class="st1" d="M700.43,304.04c-8.54-20.11-17.23-34.92-29.68-52.88-6.45-9.29-12.85-18.19-20.46-26.58-5.61-6.27-11.57-12.2-17.86-17.77-3.55-3.13-8-6-11.14-9.48-.19-.21-.38-.43-.57-.64-6.82-4.59-16.78-12.51-22.84-18.1h0c-2.77.13-7.8,5.07-10.35,6.63,25.95,22.8,44.44,43.22,62.16,73.14,8.81,15.15,16.72,30.8,23.71,46.87,1.39,3.14,13.33,32.17,13.71,32.5,1.16-.65,1.15-1.13,1.73-2.29.75-1.26,1.33-2.51,1.91-3.85l.41.76c1.42-.43,2.11-1.54,3.11-2.6-.95-7.39-3.41-14.66-5.54-21.77,3.47,5.93,6.2,12.17,8.96,18.44,1.15-1.55,2.36-2.91,2.44-4.91.65-.85,1.43-1.62,2.16-2.41l1.03-.38c.5-.74,1.37-1.67,1.44-2.57.26-3.49-2.98-8.89-4.34-12.11Z"/>
  </g>
  <g>
    <path class="st0" d="M548.01,889.61c-.17-.15-.33-.3-.5-.43h-.08s.58.43.58.43Z"/>
    <polygon class="st0" points="548.21 889.51 548.21 889.27 547.69 889.2 547.68 889.25 548.21 889.51"/>
    <path class="st1" d="M657.34,777.74c-2.65,2.24-8.55,9.41-11.88,9.6,3.36-3.14,8.12-6.56,10.68-10.27-.32-.87-.57-1.12-1.35-1.64-2.36,1.05-5.4,5.66-7.4,7.63-7.62,7.5-15.78,14.53-23.18,22.24-4.35,4.54-9.03,9.45-12.77,14.51v.02c-4.08,3.16-22.89,27.56-24.58,31.86-2.24,3.1-4.39,6.47-6.95,9.29-10.29-5.89-22.69-8.61-33.67-13.13,4.07,3.8,7.45,6.14,12.65,8.16l-.81.51c-15.04,9.58-32.88-14.66-45.01-16.69-2.1-.34-3.38.27-5.04,1.49l1.21.72c.54,2.98.05,5.89.46,8.84.25-2.47.45-4.95.56-7.43,1.74,6.3,1.85,12.85,1.95,19.33l1.55-1.96c.41-3.36.64-6.72.86-10.1,1.11,7.48,2.03,14.7,4.81,21.77l1.06-.41c1.7,1.92,3.86,4.95,6.03,6.32.56.15.76.17,1.32.52,3.61,2.23,7.21,6.39,10.51,9.14,4.78,3.99,9.94,7.59,14.91,11.34-2.82-3.78-5.83-7.53-8.02-11.72.23.13.47.25.7.39.59.36,1.08.72,1.58,1.13l.18.03.21-.97c.98-.11,1.76.65,2.53,1.23,1.71,1.31,2.92,2.81,5.03,3.53l1.07-.35c2.15,1.25,5.85,3.42,9.99,5.68l-.99-1.53,2.15-1.58-.71-2.16-.02-.02h.01s0,.02,0,.02l1.88,1.88.39-.23c.38-2.23-1.11-4.11-.8-6.34l.55.73,1.07.38c.34.98.7,1.95,1.08,2.93l.39.04.12-3.26h0c0-.45-.01-.22.03-.68l-.02.68.64.47.43,1.99c.53,3.5,1.98,6.75,2.5,10.16l-.25.86c4.92,2.34,9.48,4.09,12.01,3.97,1.76,1.48,3.68,1.37,5.88,1.25,2.59-.14,5.39-.14,7.17-2.13-1.21-1.37-2.96-2.51-4.38-3.66-4.81-3.9-8.45-7.12-11.81-12.4.62-1.12,1.18-2.28,1.75-3.43l.29.02.47-5.27c-.26-1.28-.45-2.56-.63-3.85,1.53,2.05,2.92,4.11,4.25,6.3l1.9,2.96,1.29,1.47c3.02,3.67,5.97,7.21,9.54,10.37-1.33-2.17-2.6-4.37-4-6.49l.96-3.28c-.52-3.41-1.97-6.66-2.5-10.16-.33-26.26,16.2-48.33,33.94-66.26,9.97-10.07,20.8-19.32,30-30.13-1.2-1.44-2.5-2.8-3.76-4.2Z"/>
  </g>
  <path class="st1" d="M152.15,0h7.1l89.42,102.77c9.14,10.66,18.5,21.13,27.49,31.93,2.99,3.59,6.52,7.22,9.15,11.06,29.16-22.17,61.13-39.91,97.45-46.65,11.55-2.15,23.54-3.27,35.25-1.74,6.76.89,13.05,2.52,17.28,8.31,2.62,3.59,4.52,8.01,6.54,11.97,21.74-24.35,43.75-47.04,70.59-65.82,28.54,19.67,45.51,37.66,68.89,62.77,6.34-9.6,8.07-14.84,20.43-17.35,37.83-7.67,101.31,20.66,132.54,41.76,2.4,1.62,4.76,3.3,7.06,5.06,21.22-26.72,44.37-52.01,66.57-77.91,18.99-22.16,37.09-45.6,57.81-66.17h5.55c-31.16,37.16-63.66,73.23-95.01,110.24-11.09,13.09-23.7,25.5-33.47,39.59-11.4-7.51-22.71-15.01-34.82-21.37-27.42-14.4-75.8-32.22-106.71-25.92-1.58.32-3.24.75-4.64,1.56-6.23,2.54-8.4,8.43-11.85,13.68,2.53,3.31,5.08,6.55,7.8,9.71.98,1.12,1.93,2.29,3.04,3.3,8.72,2.05,17.71,2.71,26.4,4.91,17.94,4.54,58.09,20.69,67.78,35.48,2.92,4.44,2.46,11.33,2.69,16.47,6.16,5.89,14.54,10.24,21.65,14.9,11.09,7.25,21.87,15.6,31.08,25.16-4.86,5.45-9.11,11.44-13.98,16.85-6.5-8.41-12.67-17.76-18.17-26.85-2.68-4.44-4.57-9.4-7.79-13.48-3.21-4.05-17.78-15.98-18.45-17.97-.19-.57-.1-1.68-.13-2.32-1.09,1.12-1.56,1.37-1.84,2.94.96,3.42,9.35,13.53,11.87,17.37l-.46.64c-.22-.07-.44-.14-.65-.21-1.07-.32-1.59-.46-2.65-.09,3.76,4.07,7.75,7.88,11.14,12.27,2.04,2.65,13.5,16.78,13.24,18.9-6.1-7.69-12.13-15.64-18.85-22.81-18.92-20.18-42.47-37.62-65.97-52.08-3.81-2.34-7.63-4.75-11.61-6.78-6.09-3.1-14.34-5.76-19.52-10.17-4.32-3.69-7.64-8.71-11.2-13.12-3.28-4.08-6.74-7.94-10.27-11.78-21.55-23.45-41.85-43.53-67.56-62.42-23.42,18.44-44.27,38.44-64.26,60.53-3.89,4.3-7.62,8.74-11.22,13.28-3.15,4.08-5.92,9.1-9.87,12.42-3.39,2.85-10.25,4.19-14.47,5.86-4.41,1.72-8.73,3.72-12.89,5.99-27.63,15.35-49.27,35.42-71.19,57.91-3.58-5.46-7.98-10.56-11.84-15.84l3.77-2.95c2.75,4.03,5.82,7.82,9.18,11.37,2.85-2.43,5.42-5.31,8.03-8.01-4.21-4.11-9.01-8.23-12.22-13.18l-1.41-1.34c-.15-.42-.3-.84-.49-1.25-.49-1.08-.96-2.03-1.3-3.18,1.15-3.1,6.6-6.81,9.12-8.99,8.82-7.58,18.31-14.85,28.58-20.4,18.3-9.9,48.47-18.45,69.47-16.87l5.48-7.67c.64-.91,1.05-1.8,1.49-2.81-.07-3.71-1.82-7.56-3.8-10.67-2.47-3.89-4.76-6.27-9.3-7.29-1.37-.57-2.81-.8-4.26-1.06-9.41-1.69-19.59-1.06-29,.3-35.75,5.18-69.92,22.53-98.64,44.01-18.16,13.58-34.57,29.85-53.25,42.74,10.97-12.42,26.51-23.46,39.03-34.57,1.59-1.41,4.8-3.89,4.93-6.06-3.21-5.42-8.39-10.26-12.56-15-6.07-6.93-12.1-13.91-18.06-20.93C218.82,74.82,185.74,37.18,152.15,0h0Z"/>
  <path class="st1" d="M874.87,341.21c-.06-2.96-.13-5.9-.55-8.83-1.37-9.58-5.03-19.39-8.55-28.39-5.37-13.76-11.76-27.29-19.61-39.82-21.46-34.24-62.71-76.05-95-100.33-40.61-30.54-100.68-63.78-153.35-56.31l.02.02c-5.04,1.77-6.77,4.63-9.26,9.08,6.88-.19,13.84-.57,20.72-.22,25.41,1.26,50.06,9.08,71.55,22.7,4.41,2.82,10.64,6.13,14.26,9.91.14.14.24.31.36.47,9.99,6.64,18.94,15.47,27.94,23.39,10.95,9.6,22.04,19.04,33.25,28.32,11.79,9.68,23.74,19.18,35.81,28.5,9.74,7.64,19.66,15.18,28.27,24.12,11.69,12.14,28.01,31.25,32.22,47.51l-.64.67c.71,1.43.98,1.83.91,3.47-1.52-.9-1.56-2.85-3.28-3.1l.67,1.73-.66,1-.4,2.56.99,2.68,3.03.2c1.8,3.79,3.69,7.54,5.11,11.49l-.6.75-.96-1.62c-.17,1.12-.26,1.82-.72,2.86l-.64-.32c-1.84,1.39-3.07,3.03-4.46,4.84-1.68.56-3.06.67-4.13,2.11l.31.59c3.41.31,6.8-4.98,10.09-3.33l.34.79c-3.15,2.37-6.11,4.71-8.66,7.73l1.06.7c.15,2.8,1.49,4.61,3.61,6.38,5.05,4.22,13.11,3.53,19.3,3.45,1.03-1.97,2.12-3.48,1.62-5.76ZM690.53,137.49c-5.86-3.43-11.9-6.84-18.11-9.62-5.13-2.3-10.64-4.14-15.56-6.84,6.51.13,30.15,11.84,35.92,15.12-.77.62-1.31,1.04-2.26,1.33h0ZM783.8,207.73c-18.32-17.56-37.86-33.82-58.47-48.62-7.27-5.15-15.16-9.44-22.39-14.65-4.15-2.3-8.28-4.63-12.4-6.98.95-.28,1.5-.71,2.25-1.32,0,0,0,0,0,0h.01s0,0,0,0c2.96,1.5,5.85,3.01,8.66,4.79,4.62,2.13,9.06,4.97,13.43,7.56,32.14,19.11,63.37,41.66,88.36,69.55l39.72,50.79c-6.14-6.79-52.51-54.84-59.16-61.12ZM831.14,256.36"/>
  <g>
    <path class="st0" d="M180.33,289.06c-.92,1.7-2,3.43-2.7,5.24-1.7,2.34-3.71,4.7-5.11,7.21v.02c1.42-2.51,3.43-4.87,5.14-7.22.7-1.81,1.78-3.53,2.7-5.23v-.02Z"/>
    <path class="st0" d="M296.26,164.9"/>
    <path class="st1" d="M427.75,109.14c-7.92-4.67-21.25-2.68-30.08-2.19l.03.03-.61.16c-5.43,1.47-11.43,1.81-16.99,2.95-11.52,2.34-22.9,6.31-33.65,11.03-30.44,13.37-55.66,34.08-81.41,54.66-19.3,15.42-38.79,31.11-55.57,49.33-11.86,12.89-22.71,27.67-31.6,42.76-10.72,18.19-26.99,50.87-28.49,71.69,1.87-.2,4,.2,5.76-.1,1.42-.24,1.58-.68,2.26-1.79.67-2.91,2.5-5.09,3.27-7.84.27-1,.46-2.06.68-3.08.63-.9,1.07-1.75,1.58-2.73.47-.7.72-.91,1.39-1.39,2.56.31,5.08,2.04,7.37,3.2-2.17-1.84-4.53-3.49-6.81-5.19h-.11c-.08-.16-.18-.31-.26-.49-1.42-2.96,1.81-9.84,3.05-12.91,1.05-2.49,1.54-6.6,3.76-8.23l.96.17h0s.01,0,.01,0c2.06-3.78,3.59-8.01,5.53-11.88,5.54-11.11,11.57-22.46,18.43-32.82,17.71-26.77,43.87-47.42,68.47-67.46,10.77-8.78,21.43-17.89,32.77-25.92,8.05-8.16,39.37-28.77,50.8-31.33-11.9,5.95-23.08,12.47-33.67,20.6-6.05,4.65-11.99,10.38-18.33,14.56-5.26,5.27-11.4,10-17.08,14.83-27.7,23.56-55.83,42.47-77.42,72.54-2.82,3.93-7.1,9.33-8.67,13.92.03.22.09.44.08.66-.04,1.57-1.17,2.94-1.96,4.23-.58.94-1.74,2.36-1.75,3.45.86-.91,1.57-1.66,2.18-2.77.66-1.21,1.77-2.72,3.08-3.29.15-.06.3-.09.47-.13-5.01,7.12-9.73,14.43-14.18,21.91v.02c4.47-7.49,9.19-14.8,14.2-21.92,2.97-2.19,7.85-9.79,10.81-13.04,6.54-7.2,14.35-13.95,22.16-19.78,3.45-4.63,20.41-14.92,25.87-18.71,5.92-4.08,11.72-8.33,17.4-12.74,12.87-10.09,23.91-21.83,35.49-33.29,21.01-20.8,44.16-38.24,72.5-47.67,8.01-2.66,16.19-3.21,24.2-5.4.2-.06.39-.12.59-.18l2.31-1.12-.56-.15c4.48-1.3,9.73-1.4,14.37-1.27,1.97.06,3.46-.07,4.87,1.41,2.48.56,5.08.48,7.62.55-1.28-3.15-2.34-5.65-5.08-7.81Z"/>
  </g>
  <path class="st1" d="M965.09,0h5.97c-9.11,11.64-18.9,22.56-28.48,33.8-9.45,11.1-18.65,22.48-27.91,33.75l-63.96,77c-14.84,17.93-29.43,36.22-44.63,53.82,33.12,34.29,63.48,73.51,76.16,120.31,2.32,8.54,4.68,18.43,4.6,27.35-.03,3.29-.62,6.46-3.06,8.85-3.87,3.8-10.78,4.29-15.94,4.05-7.59-.35-14.99-2.58-21.18-7.03l-.28-.63c-3.57-7.92-5.19-16.72-8.52-24.78-11.05-26.72-29.74-52.6-51.61-71.62-8.86,8.18-17.08,17.19-25.45,25.87,15.79,26.92,27.63,54.63,35.26,84.94.72,2.85,2.54,16.85,4.51,17.67,4.08,1.26,7.87,2.23,10.14,6.22,2.01,3.53,2.45,8.71,3.19,12.69.52,2.68.93,5.44,1.56,8.09.62,7.24.79,12.94-1.45,19.91,9.57,20.67,18.03,41.77,28.92,61.83,4.69,8.62,12.18,15.89,16.21,24.71-.72,6.16-2.5,11.28-4.99,16.93,6.88,17.04,13.54,34.34,21.56,50.88,2.96,6.1,7.16,11.56,10.06,17.66-.67,5.99-3.23,11.4-4.1,17.25,1.44,7.56,5.28,15.71,8.33,22.74,5.42,14.23,10.47,29.36,17.98,42.61-1.3,4.99-3.37,9.61-5.06,14.45,10.57,20.55,29.72,40.13,50.03,51.36,2.27,1.26,12.63,5.61,12.7,7.68-3.66,7.88-9.7,15.04-14.41,22.37-13.71,21.31-25.2,41.4-41.22,61.48-1.71,2.14-3.97,5.71-6.19,7.09-1.32.41-2.38,1.47-3.43,2.32.78-1.29,1.3-2.39,1.74-3.84l.13-.46c2.08-3.55,5.15-6.93,7.63-10.27,5.68-7.66,11.4-15.4,16.63-23.38,11.73-17.88,21.09-37.29,34.2-54.24-25.53-10.66-47.98-34.45-62.29-57.73-2.73,3.25-4.28,8.05-6.27,11.84-2.77,5.19-5.73,10.28-8.89,15.25-15.25,23.64-34.25,45.23-53.84,65.34-5.35,5.5-10.83,11.66-16.89,16.37l-.8-.96c-.44-4.21,12.84-15.07,15.92-18.05,27.57-26.62,49.88-57.04,68.91-90.17,2.82-5.1,4.95-10.57,7.09-15.98-5.88-9.53-24.6-56.47-26.36-67.31,1.71-4.82,3.47-9.61,4.66-14.59-2.22-5.49-6.71-10.1-9.29-15.56-8.52-18.02-15.94-36.71-23.23-55.26,2.24-4.96,3.99-9.47,5.02-14.84-4.38-8.23-10.49-15.64-15.08-23.84-8.72-15.57-15.67-32.26-22.94-48.55-1.84-4.12-3.51-9.38-6.4-12.82,2.34-11.14,1.39-20.43-.59-31.52-.53-2.96-.89-6.44-2.33-9.11-1.89-3.5-7.67-4.32-11.21-5.39-2.95-9.05-3.92-19.14-6.33-28.42-6.18-23.77-20.29-58.01-35.23-77.34,10.58-10.4,20.65-21.45,30.66-32.38,23.37,17.51,44.95,48.68,56.59,75.45,2.49,5.72,5.44,19.54,7.78,23.22,2.64,4.15,9.09,5.91,13.69,6.74,4.83.87,12.89,1.29,16.88-1.83,1.62-1.26,2.23-3.45,2.42-5.41.8-8.2-2.63-18.66-4.84-26.61-9.75-35.08-28.76-65.99-52.14-93.6-8.18-9.66-17.03-18.74-25.17-28.42,11.36-14.79,24.22-28.55,36.1-42.95l98.57-118.83c10-12.14,20.36-23.91,30.16-36.22h.01Z"/>
  <path class="st1" d="M52.94,0h12.92c.29,1.74.46,3.72.88,5.43,1.06,4.23,9.59,8.17,9.04,12.62-.37.04-.76.15-1.13.09l106.63,128.17c8.48,9.98,16.88,20.03,25.22,30.13,6.4,7.81,12.64,16.16,19.75,23.31-37.11,29.72-78.42,94.45-83.58,142.38-.29,2.73-.36,5.9,1.5,8.14,2.34,2.8,6.82,3.11,10.21,3.25,7.06.28,12.49-1.12,17.85-5.87,1.06-4.08,1.83-8.17,3.16-12.19,10.96-33.29,33.7-69.72,64.79-87.35.57-.32.69-.36,1.2-.6,9.44,12.37,20.25,23.47,29.96,35.58-19.93,24.64-39.06,70.93-43.42,102.31-4.03.84-6.92,2.26-10.22,4.62-2.98,7.73-6.68,23.32-3.2,31.27.83,1.9,1.99,3.71,3.09,5.48-3.43,6.26-5.65,13.14-8.53,19.66-5.07,11.31-10.51,22.45-16.3,33.41-4.43,8.46-9.31,16.99-14.43,25.04-2.91,4.58-6.56,8.97-8.93,13.83,1.33,5.76,2.63,11.35,5.03,16.78-4.05,18.93-16.12,38.9-25.43,55.69-2.39,4.32-5.27,8.6-7.32,13.09.97,3.54,3.01,7.65,3.28,11.25.85,11.17-11.83,39.75-16.87,50.43-2.81,5.96-6.5,11.92-8.48,18.19-.05.16-.11.32-.16.48,2.4,6.18,7.45,14.43,4.61,21.06-5.29,12.37-28.97,35.04-39.73,43.22-5.28,4.08-11.02,7.53-17.12,10.26,11.28,23.38,28.64,48.74,43.7,70.01,5.43,7.66,12.29,15,17.04,23.05-.16,1.19.32,1.54.9,2.55-.93-.04-5.46-5.54-7.27-6.5-2.42-1.34-7.33-8.93-9.26-11.56-12.31-16.36-23.83-33.3-34.52-50.77-5.84-9.37-12.12-19.03-16.3-29.27,19.44-6.76,49.54-35.33,59.5-54.07-1.26-6.3-3.68-12.19-6.34-18.01,3.03-6.91,6.52-13.63,9.63-20.52,6.69-14.85,12.72-30.33,17.07-46.04l-4.11-15.11c10.51-18.03,27.64-46.33,32.74-66.08-2.05-6.42-3.87-12.84-5.25-19.42,3.86-7.83,10.26-14.67,14.72-22.28,12.91-22.1,24.43-45.73,33.29-69.74-1.61-2.43-3.04-4.87-4.38-7.45.19-9.77,2.58-23.14,6.64-32.05,2.73-1.91,5.97-3.35,8.94-4.89,2.98-9.22,4.89-18.84,7.73-28.12,7.74-25.21,19.04-47.95,33.5-69.98-8.12-9.76-16.51-19.57-24.99-29-6.17,4.15-12.47,8.39-17.99,13.4-18.33,16.66-33.8,42.55-41.78,66.02-2.04,6.01-2.24,15.02-7.01,19.52-4.74,4.44-12.52,5.59-18.81,5.41-4.97-.14-11-1.28-14.44-5.21-2.62-3-2.02-7.93-1.77-11.62,1.13-16.52,6.72-31.65,13.31-46.64,15.82-35.96,38.34-69.37,68.12-95.28-19.58-24.58-40.54-48.13-60.61-72.31C124.27,84.39,88.85,41.98,52.94,0Z"/>
  <path class="st1" d="M940.11,0c.62,2.32,1.1,4.28.97,6.7-.24,1.47-.32,2.44-1.47,3.52.28.65.43,1.18.59,1.87l-.56.07c-.46-.54-.91-1.1-1.43-1.59-.75-.71-1.29-1.32-2.36-1.28l-.13,1.39-1.66-2.61c-1.79-1.74-3.78-3.22-5.75-4.75-1.58-1.18-3.34-2.05-4.92-3.31V0s-5.57,0-5.57,0l2.01,3.08c.99,4.43,5.64,9.36,7.92,13.5-5.65-4.85-11.04-10.06-16.47-15.17l1.11,3.03,7.64,10.58c-2.75-1.72-5.72-3.36-8.05-5.65-5.43-1.02-10.5-5.94-14.67-9.37h-4.67c5.04,5,9.89,10.19,14.55,15.56h0c5.58,7.22,10,13.81,13.31,22.39-4.9-6.28-8.31-13.59-14.32-18.98.94,2.37,2.24,4.44,3.59,6.59-.62,1.15-1.28,2.3-1.78,3.5.54,2.81,2.72,9.25,5.04,10.95.13.09.28.15.43.23-.32-1.32-1.13-2.47-1.41-3.82,1.75,1.05,5.04,2.69,5.87,4.6.32.75-.9,2-1.36,2.62-4.75,6.36-10.24,12.08-15.41,18.08-6.59,7.65-12.93,15.63-19.44,23.36l-59.67,71.11c-3.44,4.05-22.32,24.9-23.23,27.54,1.07-.08,1.64-.82,2.36-1.58,4.45-4.7,8.54-9.93,12.76-14.85,11.83-13.81,23.34-27.85,35-41.79l51.38-60.95c2.78-3.31,5.86-6.38,8.6-9.72l27.54-33.97c5.8-7.09,11.54-14.44,18.05-20.88h-14.41Z"/>
  <g>
    <path class="st0" d="M903.39,34.27h0c.07.1.13.2.19.3-.07-.1-.13-.2-.19-.3Z"/>
    <path class="st1" d="M913.03,40c-2.31-1.7-4.5-8.14-5.04-10.95.5-1.2,1.16-2.35,1.78-3.5-1.35-2.16-2.65-4.23-3.59-6.61-.05-1.44.4-2.13,1.01-3.39-4.65-5.36-9.5-10.56-14.55-15.56h-14.4l-.02-.02c-5.37,6.33-10.66,12.72-15.87,19.19,5.42,4.03,28.34,24.48,32.73,24.61l.45,1.16.4-.38v-.25c-2.32-2.76-5.01-5.31-7.14-8.25-.01,0-.02-.01-.03-.02h.01s.02,0,.02.02c2.96,1.73,6.34,3.55,9.16,5.7v-.02c.48.36.95.75,1.4,1.15.45.39.87.78,1.27,1.19h0c.89.87,1.76,1.78,2.64,2.63-2.2-5.1-6.15-9.46-8.73-14.46,2.13,1.44,4.09,3.15,6.07,4.77h.01c1.34-.51,1.96-1.62,2.78-2.73l-1.01-1.91.07-.1c-1.15-1.44-2.32-2.88-3.61-4.25.51-1.2,1.16-2.35,1.78-3.5h.01c2.49,3.92,4.85,7.81,6.79,11.98,1.37,1.63,2.66,3.34,3.87,4.81.81.61,1.03,1.08,2.08.98l.08-2.03c-.14-.08-.29-.14-.43-.23Z"/>
  </g>
  <path class="st1" d="M132.77,0h10.98c6.11,6.29,11.96,12.82,17.53,19.6-7.11,6.39-14.26,13.77-22.3,18.93l-.54-.31-.15-1.76c-1.14-.05-.67-.23-1.49.51-.92.84-1.74,1.76-2.58,2.69-.8-.31-1.08-.49-1.77-1.06.2-1.25.31-2.45.39-3.7l.45-.63-.33-.21c-4.14,3.61-7.77,7.64-11.46,11.7,1.99-5.65,3.92-11.23,6.77-16.52-5.33,5.44-9.17,12.12-14.55,17.6,3.54-7.15,7.27-13.68,9.79-21.3-5.12,5.24-8.53,12.24-13.64,17.75,3.01-7.61,7-14.93,10.4-22.39-1.57,1.45-3.03,3.02-4.5,4.56l-1.62-2.6C119.34,14.77,126.67,7.45,132.77,0h0Z"/>
  <path class="st1" d="M397.66,106.95l-.66-.26.35-.44c6.55-1,12.86-.24,19.37-.56,3.83-.19,9.76.94,12.86,3.32.24.19.48.39.72.59-.09-.25-.17-.52-.27-.77-.86-2.01-4.6-3.8-6.53-4.54-.16-.06-.32-.12-.5-.18l.16-.64c4.54,1.02,6.83,3.4,9.3,7.29,1.97,3.1,3.72,6.95,3.8,10.67-.44,1.02-.85,1.91-1.49,2.81l-1.87-4.35c-2.64-.61-2.27,1.85-5-.5-1.27.93-1.58,1.56-2.21,2.94-1.31-.88-2.29-1.99-3.35-3.14-6.08,1.11-15.64,1.25-20.71,3.54-4.22,1.9-7.76-.6-12.02,3.01-.2-.04-.4-.08-.61-.11-4.28-.75-9.81,1.21-13.7,3.1-1.36.46-3.24,1.44-4.56.96,11.12-6.4,29.25-7.72,41.7-9.39,2.61-.35,5.82-2.05,8.4-1.41.97.24,1.91.57,2.87.87,1.05.33.59.22,1.72.36l.12-.75,2.08-1.71c-42.96-2-78.84,15.99-109.89,44.31-15.06,13.74-28.5,29-44.44,41.8-6.93,5.55-14.09,10.8-21.47,15.74-6.38,4.25-14.29,8.53-19.75,13.92-1.16,1.14-2.3,2.02-3.66,2.92l-.32-.84c3.45-4.63,20.41-14.92,25.87-18.71,5.92-4.08,11.72-8.33,17.4-12.74,12.87-10.09,23.91-21.83,35.49-33.29,21.01-20.8,44.17-38.24,72.5-47.67,8.01-2.66,16.19-3.2,24.2-5.4.19-.05.39-.12.59-.18,7.01-.45,13.96-1.02,20.99-1.13,2.48.57,5.09.49,7.62.55-1.28-3.15-2.33-5.65-5.08-7.81-7.92-4.67-21.25-2.68-30.08-2.19l.03.02Z"/>
  <path class="st1" d="M838.12,308.54c1.92-2.19,4-4.84,6.8-5.8,1.15.42,1.25.85,1.96,1.8,1.22-.03,1.93.11,3.07.57l-.4,2.56.99,2.68,3.03.2c1.8,3.79,3.7,7.54,5.11,11.49l-.6.75-.96-1.62c-.17,1.12-.26,1.81-.72,2.86l-.64-.32c-1.85,1.39-3.08,3.03-4.46,4.84-1.68.57-3.06.67-4.13,2.11l.31.59c3.41.3,6.8-4.99,10.09-3.33l.34.79c-3.15,2.38-6.1,4.71-8.66,7.73.11.51.07.16-.09,1.03l-.37-.81c.64-3.52,3.91-5.2,6.6-7.21l-.04-.52c-1.56.73-3.11,1.48-4.65,2.24-1.64.8-2.5,1.29-4.34,1.08l-.48-.89c1.79-2.92,5.79-4.34,7.72-7.26.59-.88.45-.47.26-1.57-3.36.85-5.8,4.66-9.46,4.66-.67-.97-.57-1.46-.31-2.56.7-3.02,3.06-4.38,5.54-5.92,1.06-.66,2.24-1.08,2.52-2.32-3.42.25-6.23,3.76-9.35,3.52-.8-.89-.94-1.35-.92-2.58.06-3.33,5.12-5.26,7.26-7.44l-.22-.51c-1.88.66-3.85,1.52-5.52,2.62-.87.58-1.73,1.07-2.65,1.58l-.86-.42c-.49-1.62-1.08-3.11-1.78-4.66l.02.02Z"/>
  <path class="st1" d="M584.73,117.76c3.45-5.24,5.62-11.13,11.85-13.68l-.28.86c-2.51,1.77-4.15,2.7-5.56,5.42-.09.17-.66.74-.79.88-.76.8-.93,1.27-1.08,2.39,2.09-2.74,3.5-5.01,6.83-6.3l2.11.2c-5.04,1.77-6.78,4.62-9.26,9.08,6.88-.19,13.84-.58,20.72-.22,25.42,1.26,50.07,9.08,71.55,22.7,4.4,2.82,10.64,6.13,14.26,9.91.13.14.24.31.36.47-1.09.79-1.95-.33-2.89-1.07-8.11-6.34-18.83-13.23-28.13-17.56-17.71-8.05-36.77-12.68-56.21-13.68-6.78-.29-13.53.79-20.24.04-.88-.1-1.01-.14-1.88.17.4.9.7,1.77,1.4,2.48,1.47,1.48,2.7,3.23,3.99,4.88l.12-.78.15.85c-.89-3.21-2.2-2.61-3.23-4.94,2.05-2.61,5.24.87,7.37.31.06-.02.99-1.26,1.77-1.53,1.93.67,2.28,1.22,3.59,2.73-1.03-.49-2.05-.99-3.07-1.51-1.25.13-1.19.26-2.04,1.2l-2.33-.66-.39.26,1.08,1.53c-1.29-.09-1.67-.67-2.65-1.43l-.83.2c.62,1.25,1.61,2.22,2.54,3.25.32,1.73-.06,1.83-1.01,3.24-2.71-3.16-5.27-6.4-7.8-9.71h-.01Z"/>
  <path class="st1" d="M106.91,0h21.12c-5.54,4.37-12.1,8.63-18.44,11.71,1.59-4.16,3.42-7.73,5.79-11.51-4.45,3.7-7.77,8.68-12.11,12.57,1.1-2.94,4.45-8.74,4.13-11.63L106.9,0h.01Z"/>
  <path class="st1" d="M93.13,0h13.79l.5,1.13c-4.23,3.09-8.28,11.33-11.86,15.54,2.04-5.06,4.04-10.13,6.46-15.03-1.67,2.05-3.33,4.11-5.09,6.08l-.45-.22-.93.15-.24-2.1c.61-1.35.78-1.97.64-3.5-2.09,2.18-7.05,8.75-10.05,8.9,1.72-3.77,4.89-7.49,7.23-10.93l.02-.02Z"/>
  <g>
    <polygon class="st0" points="180.34 289.06 180.34 289.07 180.35 289.06 180.34 289.06"/>
    <path class="st1" d="M178.33,294.47c1.96-1.18,4.62,2.63,6.59,3.18,1.4-3.06-3.16-4.34-3.93-7.39l-.65-1.19c-.93,1.7-2,3.43-2.7,5.23-1.7,2.34-3.7,4.7-5.12,7.22l-.56-.9h0s.55.91.55.91h0s1.03.31,1.03.31c.6-.51,1.06-.98,1.53-1.6,1.6.3,2.2.72,3.14,2.06.48.68.93,1.38,1.39,2.08.55.2.88.52,1.43.21.81-.46,1.17-1.25,1.66-1.99h.46c-1.04,2.7-2.21,5.32-3.14,8.05h0c.93-2.73,2.11-5.35,3.15-8.06h-.46c-1.41-1.26-3.56-2.76-4.61-4.29-.98-1.44-.72-1.73-.35-3.36.2-.16.38-.34.6-.48Z"/>
  </g>
  <path class="st1" d="M840.79,290.74c.69.2,1.46.53,2.17.56,2.81,3.34,4.49,7.48,6.98,11.06l.67,1.73-.66,1c-1.12-.47-1.84-.6-3.07-.57-.72-.95-.81-1.38-1.96-1.8-2.8.96-4.89,3.61-6.8,5.8-.93-4.42,5.08-7.03,5.33-11.37-2.57-.92-7.6,2.95-10.17,4.08l-.61.26c2.09-3.53,6.95-7.01,8.11-10.76h.01Z"/>
  <path class="st1" d="M164.85,320.62h-.11c-.09-.16-.18-.32-.26-.49-1.42-2.96,1.82-9.84,3.05-12.91l.74,1.98.36,1.13c.17.06.35.11.53.17,3.58,1.2,5.76,3.13,7.46,6.46l-.1.97c-3.12-.54-6.34-4.38-9.61-3.17l-.78,1.15c.68,2.91,7.49,4.79,6.64,7.98-2.49-.05-5.43-5.57-7.72-3.97l-.21.68h.02Z"/>
  <path class="st1" d="M121.57,848.28c1.81.96,6.34,6.46,7.27,6.5-.58-1.01-1.06-1.36-.9-2.55.45.27,22.71,26.48,24.18,28.53-7.88-5.55-24.65-24.31-30.55-32.48h0Z"/>
  <path class="st1" d="M828.93,272.19c3.68,3.45,7.5,8.36,9.83,12.84l-1.14.38-.57-.67c-1.49-.54-3.12,0-4.63.29.63-.96,1.48-1.82,2.23-2.69l-.32-.44c-.65-.06-1.26-.12-1.88-.26-.15-.04-.31-.08-.47-.11-.04-.56-.03-.85-.23-1.41-.44-1.21-1.23-1.72-2.36-2.14-3.58.42-6.46,4.46-8.93,6.89.21-.62.44-1.23.66-1.85,1.37-3.88,6.57-7.05,6.83-10.4l.99-.44h-.01Z"/>
  <path class="st1" d="M902.25,847.35l-.13.46c-.45,1.44-.96,2.55-1.74,3.84,1.06-.85,2.13-1.9,3.43-2.32-5.92,9.18-19.79,22.37-28.19,29.41,8.91-10.47,17.93-20.72,26.62-31.37h.01Z"/>
  <path class="st1" d="M370.79,129.7c1.32.48,3.2-.51,4.56-.96,1.93,1.47,3.89,2.93,5.84,4.36l-.1.61c-.96.3-4.31.8-4.87,1.26-.63.52-.62,1.79-1.53,1.47l.03-1.48c-1.62-1.58-3.83-4.02-6.35-3.77-1.94.19-3.61,2.04-4.94,3.34-1.46.15-3.08.46-4.52.25,1.62-.72,3.12-1.44,4.62-2.4,1.99-1.29,4.92-2.4,7.28-2.68h-.01Z"/>
  <path class="st1" d="M161.33,326.73l.45,1.2-.07,2.31c2.42,2.39,6.32,2.43,7.09,6.14l-.38.66c-2.43-1.21-4.82-2.68-7.54-3.01-.89.6-1.23.8-1.34,1.98-.03.33.02.68.03,1.02,1.79.75,4.29,1.44,5.51,3-.65.88-.21.53-1.41.93l-1.68.18c-.58-1.13-1.48-1.44-2.53-2.1l-2.08-1.41c.67-2.91,2.49-5.08,3.27-7.84.28-.99.47-2.06.68-3.08h.01Z"/>
  <path class="st1" d="M881.66,619.51c.78-.87,1.21-3.18,1.77-3.44.73,1.04.67,1.33.33,2.57-.12.43-.39.93-.6,1.34.1.17.2.33.29.5,3.08,5.32,7.64,15.62,6.53,21.78-3.06-7.03-6.9-15.19-8.33-22.74Z"/>
  <path class="st1" d="M800.56,383.35c2.02-.78,5.11-.53,7.08.38,3.22,1.49,5.28,5.1,6.34,8.34.77,2.37,1.13,4.91,1.54,7.36l-1.62,2.81c-.74-4-1.17-9.17-3.19-12.69-2.28-3.98-6.06-4.96-10.14-6.22h0Z"/>
  <path class="st1" d="M814.43,260.47c-.54,1.03-1.09,2.08-1.76,3.03-.97,1.39-2.39,1.48-3.94,1.74l-.53-.42c.92-1.28,2.72-2.26,3.99-3.26l.1-1.15c-1.18-1.81-1.23-3.95-2.43-5.53-1.68.13-4.04,3.49-5.9,4.44l-.72-.24.07-.76c.91-.72,1.98-1.47,2.76-2.33.96-1.05.75-2.56.72-3.89l-.02-.62.91.35-.92.22c2.77.08,7.76,5.94,9.88,8l-2.22.43v-.02Z"/>
  <path class="st1" d="M816.64,260.04c2.92,2.74,5.95,5.42,8.72,8.31-.7.16-1.32.25-1.93.62-.7-.82-1.86-2.27-2.97-2.34-2.46-.15-4.75,3.05-6.43,4.63l-.94-.11-.32-.72c.25-.23.48-.49.75-.69,1.12-.8.52,0,1.64-.95,1.13-.96,1.67-3.38,1.64-4.79-.04-1.67-1.27-2.42-2.36-3.53l2.22-.43h-.01Z"/>
  <path class="st1" d="M823.43,268.97c.62-.36,1.23-.46,1.93-.62l3.58,3.84-.99.44-1.73-.73c-2.99,1.2-5.59,3.29-8.34,4.94l-.16-.53c1.59-3.22,2.8-5.19,5.71-7.33h0Z"/>
  <path class="st1" d="M157.38,337.65l2.08,1.41c1.05.66,1.95.97,2.53,2.1l-4.67,1.08c-2.55-.19-5.09-.55-7.63-.87l-.32-1.84c1.87-.2,4,.2,5.76-.1,1.42-.24,1.58-.67,2.26-1.79v.02Z"/>
  <path class="st1" d="M838.76,285.02c1.49,2.05,3,4.05,4.2,6.29-.72-.03-1.49-.35-2.17-.56-1.27-.14-2.11-.36-3.24-.93l-1.88.17c-1.16,1.09-2.91,2.75-4.52,2.84,2.05-2.32,3.86-4.82,6.11-6.94l.36-.49,1.14-.38h-.01Z"/>
  <path class="st1" d="M90.85,0h2.27c-2.35,3.44-5.51,7.18-7.23,10.93-.53-.28-1.04-.72-1.54-1.07l-.15-.95c1.66-3.26,4.44-5.97,6.65-8.91Z"/>
  <path class="st1" d="M114.15,22.83l1.62,2.6c-2.02,2.38-3.92,4.8-5.75,7.33l-.54-.43-.75.64-.11-.16.31-.64c-.55-.7-.39-.29-.37-1.23,1.12-2.85,3.75-5.67,5.59-8.1h0Z"/>
  <path class="st1" d="M149.69,341.37c2.54.31,5.08.68,7.63.87l-.07.97,1.12,1.05-.84-.1c.3.18.86.62,1.21.62-2.67.45-7.33.29-9.68-.99l-.28-1.1.91-1.3v-.02Z"/>
  <path class="st1" d="M162.91,324c2.73,1.84,5.71,3.6,7.77,6.22l-.48.37c-3.02-.61-5.35-2.65-8.43-2.65l-.45-1.2c.64-.9,1.07-1.75,1.58-2.73Z"/>
  <path class="st1" d="M824.77,289.16c1.92-3.24,3.61-6.13,7.21-7.65.15.04.3.08.47.11.64.14,1.25.21,1.88.26l.32.44c-.75.87-1.6,1.73-2.23,2.69-2.63,1.16-5.14,2.74-7.66,4.14h.01Z"/>
  <path class="st1" d="M161.99,341.16l1.68-.18,2.15.25.28.63c-1.77,1.93-4.83,2.63-7.35,2.91-.34,0-.91-.44-1.21-.62l.84.1-1.12-1.05.07-.97,4.67-1.08v.02Z"/>
  <path class="st1" d="M132.87,34.87c-.08,1.26-.19,2.46-.39,3.7.69.59.97.75,1.77,1.06-1.89,2-4.3,3.77-6.42,5.55,2.18-3.24,2.33-7.64,5.04-10.31Z"/>
  <path class="st1" d="M815.51,399.44c.54,3.31,1.68,7.82-.06,10.91-.63-2.65-1.05-5.41-1.56-8.09l1.62-2.81h0Z"/>
  <path class="st1" d="M108.56,30.92c-.02.94-.16.54.37,1.23l-.31.64.11.16.75-.64.54.43c-.62,1.17-1.2,2.53-2.08,3.53-.66.76-.72.81-1.74.88l-.38-1.07c.3-2.05,1.56-3.52,2.73-5.17h.01Z"/>
  <path class="st1" d="M92.98,9.05c.69.38,1.45.73,2.09,1.18-1.52,2.27-3.24,3.96-5.23,5.78.83-2.47,1.94-4.68,3.15-6.97h0Z"/>
  <path class="st1" d="M92.98,9.05l2.32-3.52.24,2.1.93-.15.45.22-1.84,2.54c-.64-.46-1.4-.81-2.09-1.18h-.01Z"/>
  <g>
    <path class="st1" d="M738.55,268.83s.01.02.02.03c0,0,0,0,0,0l-.02-.02Z"/>
    <path class="st1" d="M784,369.56c-7.3-36.36-23.69-70.75-45.43-100.71-5.33,12.66-12.26,25.65-20.04,36.98-6.17,8.98-12.55,18.12-19.55,26.48-25.89,30.96-60.47,56.9-96.56,74.76-9.36,4.63-20.09,10.45-30.41,12.36,1.96,4.27,3.81,7.77,7.13,11.15,51.18-13.16,98.35-47.46,131.67-87.9,7.52-9.13,13.05-19.63,20.3-28.82l.53-.67h0c4.27-7.55,11.99-19.62,13.57-27.85.11-.6.27-1.18.4-1.78l.28-1.29c1.05,1.56,1.55,2.35,1.2,4.32-1.01,5.71-9.02,22.27-12.17,27.26h-.01c-3.91,7.7-9.06,14.87-14.06,21.89-24.99,35.09-57.56,62.45-95.72,82.31-8.35,4.34-16.72,8.61-25.7,11.54-5.92,1.87-11.92,3.46-17.99,4.78,17.41,7.39,55.43,10.19,75.3,12.54-5.92,4.93-13.75,8.06-20.66,11.37-10.48,5.02-20.92,10.29-31.58,14.91-8.43,3.65-17.31,6.68-25.45,10.94-1.11,3-2.13,6.04-3.58,8.89,15.81-6.37,32.22-11.46,48.2-17.42,28.69-10.75,56.83-22.9,84.32-36.4,16.75-8.19,33.49-16.47,48.83-27.15-.25-1.62-1.01-3.97-.45-5.49,1.31,1.37,1.99,2.91,2.8,4.6-.15-6-.05-11.58.86-17.53.76,4.32,1.14,9.01,2.74,13.1l.48.18c.91-5.06-.21-10.79-.9-15.85l.66-.24c-.48-2.94-1.01-5.86-1.61-8.78l.44-.2c1.64,2.93,1.36,7.58,3.22,10.07l.37-.58c1.6,3.76,1.19,8.02,3.27,11.84l.59.13c3.48-16.71-12.96-62.47-19.5-78.55,10.31,14.95,15.78,31.72,23.08,48.09,2.93,6.58,6.65,12.97,10.24,19.2l.39-.35c.62-5.47-4.28-13.99-6.41-19.33,3.15,4.46,5.06,10.02,8.53,14.13l.71.03c.04-.19.09-.38.11-.58.57-5-1.48-11.43-2.48-16.41Z"/>
  </g>
  <path class="st1" d="M754.89,363.64c5.64,8.11,8.37,18.22,10.51,27.74l-.37.58c-1.86-2.49-1.58-7.15-3.22-10.07l-.44.2c.6,2.92,1.13,5.84,1.61,8.78l-.66.24c-2.04-9.36-5.08-18.23-7.43-27.47h0Z"/>
  <g>
    <path class="st0" d="M510.08,69.5s.08.06.13.09c.02-.03.03-.06.05-.09h-.17Z"/>
    <polygon class="st0" points="467.07 369.04 467.07 369.04 467.95 368.96 467.95 368.96 467.07 369.04"/>
    <path class="st1" d="M567.55,411.62c-.3-13.78-1.79-27.7-3.27-41.39-3.51-32.58-8.87-64.44-14.82-96.66l-18.66-99.84c-2.9-15.25-6.61-30.41-8.87-45.77-3.08-13.12-5.59-26.52-7.83-39.8h0s0-.02,0-.03h.01s1.31.1,1.31.1l1.04-2.14c-.55-4.56-1.12-9.1-1.73-13.64-.75-.73-.88-.73-1.2-1.79l-.11.72c-.84.49-.88.69-1.88.58-.09-.27-.18-.56-.28-.83-.32-.82-.44-1.08-1.04-1.54-.06.13-.13.25-.19.38-.35.87-.32,1.66-.35,2.58l-.87.16h.05c-1.32,7.53-2.18,15.12-3.6,22.64-1.59,8.35-3.86,16.82-4.89,25.23l.21.38.47.11c1.09-4.53,1.35-9.4,2.72-13.84.22-.7.39-1.34.51-2.06l.1-.74c.73,4.04-1.63,8.81-.68,12.42.06.24.14.49.21.73-1.68,17.12-6.66,36.08-9.58,53.37-4.69,27.82-9.11,55.72-14.42,83.43-3.53,18.43-7.58,36.76-10.96,55.23-2.46,13.45-4.24,27.03-6.16,40.56-2.87,20.21-5.67,40.55-6.95,60.95,3.18-5.05,6.2-9.35,6.83-15.49.22-2.17.05-5.46.84-7.38.24.18.34.24.4.31-.06-.07-.16-.13-.41-.32.16-6.15,1.46-13.66,2.93-19.66l-.03-.02h.01c2.16-15.57,4.68-31.08,7.57-46.51.87-4.87,1.11-10.86,3-15.38-.58,11.31-2.97,22.78-4.59,33.99-1.46,10.1-2.32,20.29-3.79,30.38,0,0,0,.02,0,.03,0,4.89-1.25,9.98-.83,14.8-.17.17-.35.33-.51.53-1.92,2.38-1.2,5.52-3.39,8.08,0,0,0,.01,0,.02,2.2-2.56,1.47-5.71,3.39-8.09.15-.19.33-.35.51-.53-.06.98-.17,1.95-.28,2.93.52.28.86.48,1.29.91-1.47,2.11-2.89,4.24-4.29,6.41,3.72-3.37,8.3-7.42,10.98-11.71.56-.9.77-1.09.56-2.17-2.49,1.47-4.51,3.59-7.1,5.09l-.12-.26c2.5-2.5,5.08-4.92,7.73-7.26,1.64-10.64,4.1-21.05,5.94-31.63,1.39-7.93,1.91-16.88,4.32-24.51h0c.3-8.75,2.28-18.14,3.33-26.88.92-7.64,1.49-21.51,3.52-28.24-1.51,18.25-2.2,36.68-3.34,54.96,0,0,0,0,0,0,.1,6.91-4.07,42.29-1.95,45.59.26-.72.53-1.39.69-2.14.67,1.04.47,1.2,1.75,1.51.65-1.35,1.33-2.67,2.02-4,2.34-1.6,3.87-6.57,5.3-9.12-1.13,3.81-2.45,7.64-2.23,11.67.1,1.87.48,3.41,1.88,4.72l.61-.57c-.03-.13-.06-.27-.09-.42-1.05-5.48.82-11.3,3.9-15.79-.91,2.52-2.83,6.48-2.21,9.07,1.36.1,2.68-3.26,4.19-4.1,0,0,0,0,0-.01.52.02,1.06.15,1.57.23l.61,1.16c.15-.12.78-.59.88-.74,1.08-1.58-.94.51.92-1.29.21-.2.43-.39.64-.6-.04-.88.08-1.33.32-2.18.06,1.96.13,3.93.21,5.89.03.74-.02,3.93.3,4.44.1.16,6.52,1.17,7.44,1.55,8.34,3.39,16.82,7.66,23.54,13.7-.8-9.79-1.77-20.43-1.5-30.23,1.85-5.54-1.35-21.9-1.19-29.41.5,9.04,2.48,18.22,3.62,27.23l.6-.07c2.17,7.33,2.86,27.19,2.94,35.44,3.24,2.96,6.58,5.84,9.66,8.96-.65-7.26-1.02-14.69-.98-21.97.08-.23.17-.47.25-.7.34-1.03.45-2.35.44-3.77,0,1.4-.1,2.72-.44,3.74-.08.23-.17.47-.25.7v.02c-.58-11.9-1.54-23.79-2.88-35.63-.75-6.67-3.57-22.4-2.88-28.24.02.19.03.37.05.57.35,3.68,1.43,7.2,1.96,10.83.92,6.18,1.36,12.51,2.26,18.73,1.65,11.37,3.87,23.08,4.49,34.53l-.36,2.97c-.65-1.16-1.74-12.91-1.79-14.85v-.62l-.91-.21.02.04.89.21v.62c.05,1.94,1.14,13.69,1.79,14.85l.36-2.97c1.48,5.98,2.2,18.76,1.93,25,3.16,4.45,6.17,8.98,8.87,13.73ZM492.81,364.48c-.7,1.33-1.38,2.65-2.02,4-1.29-.3-1.08-.47-1.75-1.51,1.2-6.13,2.27-12.3,3.18-18.48v.02l.41,1.92c1.32-2.37,1.38-7.36,1.42-10.15.47.47.34.19.34.89,0,3.17-1.14,6.55-.23,9.58.06.21.11.44.17.65.04.13.08.26.11.38-.27,4.28-1.17,8.45-1.63,12.7Z"/>
    <path class="st0" d="M505.67,367.93c-.66-.1-1.04.05-1.43-.58-.45-.74-.62-2.04-.62-3.37,0,1.33.17,2.64.62,3.38.38.63.77.48,1.43.58.57-.32.68-.35,1.19-.86,1.87-1.83,1.79-5.95,1.92-8.33,0,0,0,0,0,0-.13,2.38-.05,6.5-1.92,8.33-.52.51-.63.54-1.19.86Z"/>
    <path class="st0" d="M554.07,360.85c.04,1.86.36,4.44.37,6.78,0-2.35-.33-4.95-.37-6.81l-.37-.63h-.02s.39.66.39.66Z"/>
    <path class="st0" d="M488.03,320.87c.22-2.16.53-4.36,1.51-6.33.25,1.04.31,2.1.32,3.16,0-1.06-.06-2.12-.32-3.17-.98,1.96-1.29,4.17-1.51,6.33-.11,1.12-.36,2.03-1.22,2.83,0,0,0,0,0,0h0c.86-.8,1.11-1.71,1.22-2.83Z"/>
    <path class="st0" d="M490.18,323.05c-.27-1.08-.33-2.16-.34-3.23,0,1.07.07,2.15.34,3.24.03.16.08.31.12.48,0,0,0,0,0-.01-.04-.16-.09-.31-.12-.48Z"/>
    <path class="st0" d="M464.33,389.43c-.34-.65-.33-.75-.44-.86.1.11.1.22.43.85-.43,1.73-1.03,3.32-.46,5.08,0,0,0,0,0,0-.57-1.75.04-3.34.46-5.06Z"/>
    <polygon class="st0" points="466.41 368.58 466.39 368.58 466.41 368.59 466.41 368.58"/>
    <path class="st0" d="M467.95,368.96c.24.72.46,1.39.63,2.13,0,0,0-.02,0-.03-.16-.74-.37-1.4-.62-2.11h0Z"/>
    <polygon class="st0" points="467.07 369.04 466.41 368.59 466.41 368.6 467.06 369.04 467.07 369.04"/>
    <path class="st0" d="M504.17,359.97s0,0,0,0c-.06.18-.13.34-.17.51-.21.83-.38,2.18-.38,3.51,0-1.33.16-2.67.38-3.5.04-.18.11-.34.17-.53Z"/>
    <polygon class="st0" points="508.79 358.74 508.79 358.73 508.79 358.73 508.79 358.74 508.79 358.74"/>
  </g>
  <path class="st1" d="M796.48,405.3c-1.2-.19-1.29-.05-2.37.55l.02-.02c-1.09.89-2.4,1.46-2.43,3.03-.06,3.19,2.42,8.19,2.86,12.1l-.43.2c-2.04-3.36-2.47-8.44-3.97-12.19-7.55,4.77-14.66,10.19-22.21,14.98-12.44,7.89-25.45,14.81-38.52,21.58-46.21,23.93-95.1,42.42-143.36,61.62l-39.81,15.74c-6.15,2.43-11.86,5.48-18.31,7.16-8.76,2.28-17.67,3.09-26.54,1.08-7.09-1.6-13.81-4.6-20.54-7.26-11.47-4.54-22.84-9.37-34.36-13.79-28.92-11.08-58.54-20.64-87.17-32.48-8.25-3.41-16.68-6.78-24.76-10.6-5.03-2.37-9.9-5.39-15.01-7.52-.95-.39-1.79-.69-2.82-.63-1.62-.54-3.04-1.56-4.48-2.46-1.15-.43-1.8-.7-2.66-1.6-.61-.65-.9-.93-1.81-1.13-.91.9-1.71,1.38-2.84,1.92l-.41.19c-2.03,1.28-4.49,3.2-5.25,5.6-.07.25-.06.52-.09.78-.17,1.27-.31,2.35-.85,3.52-1.17.83-1.36,1.06-2.85.89-2.19-.25-3.82-1.47-6.13-1.2-17.65-7.25-34.44-17.7-50.23-28.31-5.93-3.98-11.68-8.3-17.7-12.14,18.72,20.52,56.74,39.91,81.73,52.14,5.37,2.63,10.85,6.09,16.43,8.15,5.46,3.26,11.65,5.74,17.43,8.4l29.45,13.45c22.53,10.19,44.98,20.43,67.86,29.81,24.24,9.95,52.12,22.49,78.68,22.49,11.81,0,23.74-2.56,35.03-5.87,14.37-4.21,28.21-9.87,42.11-15.42,12.76-5.09,25.55-10.06,38.23-15.39,49.16-20.66,97.53-41.7,142.72-70.29,6.73-4.26,14.83-8.46,20.44-14.14,4.22-4.27,10.14-11.26,10.08-17.51-.53-4.58-2.06-11.97-5.14-15.45ZM515.42,554.34c-4.45,1.49-9.27-.92-10.75-5.37-1.49-4.45.92-9.27,5.37-10.75,4.45-1.48,9.26.92,10.74,5.37,1.49,4.45-.92,9.26-5.36,10.75Z"/>
  <path class="st1" d="M466.35,429.41c5.22-12.76,18.51-23.39,30.69-29.15,10.45-4.93,20.29-3.74,30.9.07,13.5,4.85,25.6,16.12,31.62,29.06-.75.32-1.68.58-2.22,1.19-7.35-12.42-16.96-20.97-31.16-24.68-12.74-3.32-26.47-1.79-37.8,5.03-6.76,4.07-11.5,8.33-16.01,14.78-1.11,1.59-2.51,4.46-3.92,5.67-.86.05-.85.21-1.49.74l-.55-.1c.35-.72.35-1.4.09-2.16-.05-.15-.13-.3-.19-.46h.02Z"/>
  <path class="st1" d="M495.33,396.99c3.74-1.56,7.76-2.23,11.47-3.77,3.65-1.52,2.21-3.82,3.58-7.13l.72-.29c.22.17.49.29.68.51,2.49,2.8-.65,3.55-.84,6.13l1.31.44-.67.72c-.8.09-.55.02-1.19.22-4.88,1.51-10.04,2.25-15.06,3.16h.01Z"/>
  <path class="st1" d="M512.25,392.88c6.53-.06,12.23,2.55,18.17,4.97-6.4-.99-12.88-1.57-18.84-4.25l.67-.72h0Z"/>
  <path class="st1" d="M560.46,483.18l.74.14c1.93-2.95,2.6-6.5,3.32-9.91l.53.14c.32,1.31.38,1.77-.04,3.03-.68,1.98-2.02,5.07-1.64,7.13l.26.28c-.73,2.28-1.66,4.62-2.89,6.67-7.26,12.07-22.08,22.15-35.64,25.47-13.78,3.34-28.31,1-40.34-6.49-9.64-5.89-20.9-15.65-23.62-27.16l.27-2.48.67-.52,1.18.53c7.43,14.35,19.63,25.61,35.26,30.54,12.62,3.98,25.5,2.21,37.13-3.94,7.84-4.15,14.34-9.64,19.82-16.59,1.63-2.08,3.18-5.05,4.99-6.85h0Z"/>
  <path class="st1" d="M466.35,429.41c.06.15.13.3.19.46.26.76.26,1.44-.09,2.16l.55.1c.64-.53.63-.69,1.49-.74-7.26,14.82-10.13,32.58-5.22,48.63l-1.18-.53-.67.52-.27,2.48c-1.72-5.05-2.15-10.44-2.21-15.73l-.02-2.82c.13-12.46,1.77-23.33,7.44-34.52h0Z"/>
  <path class="st1" d="M564.33,456.2l.82,2.57c.23-.1.98-.49,1.22-.48-.01,2.1-.22,4.4.28,6.44l.13,3.64c-.56,5.28-.85,10.73-3.16,15.61l-.26-.28c-.38-2.05.96-5.14,1.64-7.13.43-1.26.36-1.72.04-3.03l-.53-.14c-.72,3.4-1.39,6.95-3.32,9.91l-.74-.14c3.99-8.82,3.91-17.5,3.87-26.97h0Z"/>
  <g>
    <path class="st1" d="M527.88,425.36c-8.48-2.01-18.1-.73-25.46,4.03-6.85,4.42-12.79,11.98-14.59,20h0c-2.88,7.8-1.36,17.42,2.08,24.87.92,2,2.46,5.35,4.16,6.64,4.86,7.32,13.26,13.03,21.89,14.79,6.62,1.36,14.02.48,19.67-3.39.31-.21.62-.44.92-.66,7.55-4.36,13.89-14.9,16.08-23.15,2.49-9.32.94-18.65-3.97-26.88-4.7-7.89-11.71-14.08-20.79-16.25Z"/>
    <path class="st1" d="M572.02,438.94c-2.99-4.37-4.93-9.6-7.05-14.43-11.62-26.55-24.47-40.41-52.08-51.22-24.69,10.92-37.71,17.19-49.74,42.56-3.16,6.66-5.96,14.68-10.29,20.58-1.07,1.46-2.39,2.91-4.1,3.58-4.83,1.92-11.09,2.26-16.26,3.02-10,1.5-20.03,2.8-30.08,3.92-7.74.84-15.62,1.39-23.3,2.7,7.13,1.12,14.36,1.71,21.51,2.82,2.93.66,6.16,1.67,9.13,1.85,6.43,1.69,13.05,3.31,19.61,4.37,7.08,2.41,21.98,6.89,29.03,5.43l.55-.19.02,2.82c-1.81.75-3.4,1.93-5.09,2.91.52,12.77,3.35,22.55,13.02,31.41,12.86,11.79,29.94,20.91,47.84,19.99,16.4-.84,35.72-10.47,46.65-22.65,5.89-6.57,10.98-17.52,10.32-26.54-.08-1.16-.48-1.59-1.13-2.5-1.36-.63-2.31-.82-3.77-.97l-.13-3.64c10.56-.62,20.82-3.3,31-6.01,5.4-1.13,10.75-2.84,16.12-4.12,8.31-1.98,16.73-3.58,25.09-5.36-16.07-1.51-53.1-3.67-66.88-10.3ZM550.1,482.93c-7.84,10.89-19.45,18.38-32.74,20.49-10.73.89-20.3-.57-29.45-6.6-9.41-6.19-18.32-18.37-20.45-29.55-2.91-15.26,2.42-30.09,11.05-42.57,7.14-10.32,16.75-15.41,28.88-17.68h-.01c8.94-.75,18.4.57,25.93,5.76,4.32,2.99,4.45,4.79,7.33,8.43,1.81,2.3,4.09,4.25,6,6.47,5.35,6.18,9.23,14.8,10.63,22.85,2.05,11.34-.54,23.02-7.19,32.41Z"/>
    <polygon class="st1" points="512.89 373.28 512.9 373.28 512.91 373.28 512.89 373.28"/>
  </g>
  <path class="st1" d="M494.07,480.91c1.71-.32,2.43,1.3,3.56.81,9.04,7.17,14.59,12.79,27.18,11.29,2.68-.32,9.64-2.57,11.56-2.15l.19.79c-.3.22-.61.45-.92.66-5.65,3.87-13.05,4.75-19.67,3.39-8.63-1.76-17.04-7.47-21.89-14.79h-.01Z"/>
  <path class="st1" d="M487.83,449.39c.31.94.44.98.21,2-1.11,5.1-1.61,14.98,1.36,19.49.23.35.49.5.81.72-.05-1.05.07-.47-.39-1.51-1.78-4-2.85-14.36-1.27-18.49.29-.77.35-.79.75-1.38l.61.07c.05,2.09-1.04,4.7-1.15,6.96-.47,9.15,3.46,17.34,8.87,24.47-1.13.49-1.85-1.14-3.56-.81-1.7-1.29-3.24-4.64-4.16-6.64-3.43-7.45-4.96-17.07-2.08-24.88h.01Z"/>
  <path class="st1" d="M585.83,216.64c-4.96-6.73-10.47-14.58-16.72-20.14-.27-.24-.58-.47-.87-.69h0c-8.53,3.78-16.82,7.12-25.8,9.73,14.03,68.63,26.7,138.35,30.52,208.37,10.18-3.49,19.82-7.55,29.47-12.33,12.94-6.54,26.45-13.81,37.77-22.93-4.81-55.45-21.07-116.74-54.36-162.01ZM562.11,229.27c-2.24-.32-3.58-1.13-4.96-2.94-2-2.63-2.41-6.02-1.81-9.21.57-3.04,2.02-4.5,4.53-6.15.76.22,1.34.5,2.01.91,3.22,1.95,4.22,5.95,5.06,9.35-1.09,3.61-1.82,5.64-4.84,8.04ZM597.92,367.74c-.71,0-1.42.03-2.12-.07-2.19-.31-4.14-1.42-5.34-3.29-1.47-2.27-1.55-5.02-.93-7.58.86-3.53,2.71-5.26,5.72-7.12h0c1.05.01,2.22-.05,3.24.24,2.03.59,3.87,2.46,4.78,4.31,1.22,2.49,1.12,5.49.22,8.07-.99,2.86-2.97,4.13-5.57,5.44Z"/>
  <path class="st1" d="M456.56,195.67h-.02c-7.01,6.49-12.6,14.29-18.05,22.11-31.6,45.32-47.83,106.68-52.27,161.22,10.12,9.55,25.81,17.72,38.21,24.08,8.31,4.07,16.6,7.65,25.28,10.87,4.02-29.88,6.78-59.93,11.26-89.78,2.73-18.19,6.42-36.3,9.84-54.37,4.08-21.51,8.02-43.02,12.35-64.49-9.21-2.63-17.7-6.14-26.59-9.64ZM430.38,367.15c-3.04,1.15-6.46.58-8.95-1.51-2.49-2.09-3.65-5.35-3.05-8.54.61-3.19,2.89-5.8,5.97-6.82h.01c4.63-1.54,9.63.9,11.27,5.5s-.7,9.65-5.25,11.38ZM470.04,219.56c-.41,4.19-2.7,7.01-5.82,9.63-1.55.1-2.93-.02-4.13-1.11-1.55-1.41-2.04-3.51-1.98-5.54.16-4.76,2.23-8.57,5.67-11.73h0c1.64.51,3.13,1.4,4.29,2.67,1.55,1.7,2.2,3.81,1.97,6.08Z"/>
  <path class="st1" d="M928.82,758.18c-11.55,17.83-23.94,35.05-35.89,52.61-.17-2.29,6.02-12.31,7.42-14.92,7.13-13.34,15.45-28.38,19.18-43.08-5.93-4.22-10.88-8.54-15.86-13.89.1.17.19.35.28.53,1.75,3.23,7.3,8.04,7.14,11.55-.79.53-.58.6-1.44.48-5.79-.83-14.28-18.18-19.54-22.35-4.44,7.21-8.76,14.59-13.6,21.53-11.79,16.88-25.57,32.45-39.57,47.53-7.14,7.68-14.42,15.9-22.83,22.23,4.22,32.37,7.94,64.32,7.81,97.03,26.74-17.98,50.64-48.34,70.69-73.49,19.12-24.52,34.98-51.21,49.56-78.6-4.23-2.78-8.97-4.66-13.36-7.16ZM852.78,836.95c-.43,2.57-1.76,5.13-3.94,6.64-1.76,1.21-3.9,1.75-5.99,1.22-2.61-.66-4.56-2.74-5.74-5.08-.81-1.6-1.22-3.48-1.64-5.21.46-1.93.77-4.01,1.83-5.71h.01c.36-.74.76-1.44,1.25-2.12,1.17-1.62,2.91-2.98,4.93-3.24,2.47-.32,4.01.71,5.85,2.16,2.48,3.38,4.15,7.03,3.44,11.34Z"/>
  <path class="st1" d="M827.02,492.18c-7.87-15.81-13.45-32.98-24.19-47.23l-.05.02c2.81,7.16,6.12,14.1,9,21.24,5.04,12.76,9.4,25.78,13.06,39-2.58-3.75-4.36-8.17-6.41-12.23-4.41-8.78-15.54-31.49-22.48-37.58-1.49-.39-1.91.02-3.31.6-.07.04-.14.08-.22.12,2.14,3.25,3.98,6.56,5.75,10.03-2.7-2.88-5.15-6-8.22-8.51-1.11.59-2.3,1.13-3.32,1.87-.08.05-.16.09-.24.14l3.97,6.94c-2.42-1.6-4.53-3.14-6.55-5.21l-1.35.38c-.74,1.61.21,3.6.8,5.2.3.82.61,1.62.87,2.46-1.45-1.82-2.99-3.6-4.1-5.66-.12.3-.23.62-.37.91-.09.2-.4.69-.54.89-1.76-.7-2.1-1.1-3.91-.58,1.57,2.47,2.68,4.8,3.77,7.57-2.1-2.01-4.17-4.16-6.43-6.01l-.21.13-2.25,1.07c1.07,1.26,2,2.32,2.42,3.97-.79.45-.39.4-1.34.12-1.53-.46-2.78-1.41-4.19-2.08l-.33.22c-1.1.62-1.78.68-2.21,1.92.71.89,1.41,1.75,2.17,2.6l-.59.32c-2.45-.71-4.39-1.82-6.85-.96l-.54.95c.41,1.05.89,2.02,1.44,3.03l-.13.25-.79-.31c-1.48-.59-3.52-1.59-5.11-1.04-.55.18-1.09.56-1.58.87l-.1.87,1.62,1.88c-3.04,1.32-6.63-2.23-9.21,1.81-.45.71-.27.81-.12,1.57-.88-.04-1.53-.21-2.35-.52-4.31,1.57-8.55,3.96-12.56,6.2-.19,1.17-1.45.59-1.31,1.41l.86.4s.01,0,.02.01l.38-.32h0s2.05.84,2.05.84l-2.05-.84c1.96,5.12,4.49,10.25,5.75,15.6l-.17.38c-3.07-4.38-4.97-9.44-8.07-13.86h-.03s-.75.02-.75.02c.04.4.03,1.01.15,1.4h.02c1.57,3.7,3.22,7.41,4.66,11.17-2.78-3.25-5.09-6.87-7.87-10.08-.01,0-.02,0-.03,0l-1.33-.78-.54.49c.16,3.41,1.92,7.47,2.81,10.84-.93-1.91-1.83-3.97-3.01-5.75-.97-1.49-2.62-3.27-4.39-3.68l-.59.82c.04,2.48,1.43,4.73,2.47,6.92-.53-.67-1.07-1.32-1.64-1.94-1.46-1.63-3.34-3.74-5.65-3.87l-.77.71c5.71,16.33,14.23,31.85,20.96,47.8,7.54,17.86,13.67,36.29,21.06,54.18,31.9-19.4,71.69-52.28,89.09-85.83-5.66-7.46-10.63-14.85-14.82-23.28ZM759.8,542.05c-.51,3.75-2.27,5.69-5.22,7.82-.67.14-1.33.29-2,.32-1.87.09-3.88-.68-5.15-2.05-1.65-1.78-2.12-4.35-1.99-6.69.22-4.26,1.87-6.82,5.03-9.55.76-.09,1.62-.24,2.38-.17,1.95.16,3.87,1.3,5.11,2.78,1.74,2.09,2.22,4.89,1.85,7.53Z"/>
  <path class="st1" d="M510.02,583.46c.77-1.66.73-1.93,2.42-2.8,1.4.15,1.68.37,2.84,1.19.23.88.44,1.73.58,2.64.08-.46.32-.92.49-1.36l2.17-.71c.93.16,1.86.26,2.75.6,5.66,3.06,9.28,6.24,12.93,11.57-2.22,8.39-5.92,16.91-7.37,25.4,1.07,2.34-2.11,8.18-.65,9.75.54-1.16,1.04-2.32,1.52-3.5.74-.22.46-.29.87-.1l.45-.89c3.12-6.4,4.61-13.39,9.19-19.03l.61-.75c-1.87,6.06-4.74,11.76-6.27,17.93,2.88-6.68,7.57-11.69,7.65-19.2,3.95,5.71,7.5,11.48,10.56,17.72-9.01,24.09-21.06,45.04-26.87,70.62,6.16-14.79,13.98-35.66,23.46-48.32-1.95,5.17-13.62,28.36-13.22,31.72,4.83-9.37,13.38-29.88,19.38-36.99-.86,3.65-1.98,6.95-3.37,10.45,2.35-3.54,4.48-6.39,3.75-10.83l.6-.77c2.53.14,4.03,4.42,5.87,4.21-.91-2.29-3.43-3.33-4.12-5.73l.5-.77c1.62-.1,2.47.5,3.66,1.58,7.61,6.93,13.92,17.71,19.51,26.28-1.34,4.12-2.7,8.29-4.68,12.16l-1.38-.04-.03.47,1.02.28-1.03-.07.06.85c-.64-3.8,1.09-7.76,1.75-11.47-2.77,7.24-4.99,13.52-10.64,19.12,1.34-3.61,2.39-7.1,3.16-10.87-2.6,6.32-4.95,10.84-10.19,15.41.89-2.98,1.85-5.84,3.05-8.71-3.89,5.12-6.19,10.99-10.53,15.83,1.05-3.76,2.17-7.52,3.06-11.32-1.81,3.36-9.1,22.09-10.5,23.25-1.33-.37-2.08-1.02-3.07-1.96-3.36,8.48-7.79,16.62-13.86,23.46,3.08-6.38,6.15-12.7,8.36-19.44-1.36,1.68-2.22,3.97-3.19,5.9-4.11,8.19-7.22,13.04-15.12,18.03,3.25-4.53,6.47-8.08,8.62-13.29-2.64,3.46-5.1,7.23-7.97,10.5-1.1,1.26-2,1.89-3.72,1.99-3.48-1.04-4.6-4.25-6.25-7.21.69,1.82,2.13,4.45,1.49,6.39l-.88.03c-4.17-3.87-6.4-9.23-8.12-14.53.3,6.74,3.24,10.72,6.53,16.25-8.88-6.78-11.14-13.28-12.32-24.03-.3-2.74-.44-5.12-1.71-7.6-.91,5.44,1.19,13.47,2.02,19-5.99-9.17-5.1-19.53-9.86-28.84,1.25,6.46,2.36,12.94,3.35,19.43-3.08-6.52-5.83-17.99-10.39-23.19,1.4,5.33,3.55,10.54,5.45,15.71-4.72-6.84-7.4-14.68-11.82-21.62.86,3.53,2.05,6.89,3.3,10.31-4.22-4.99-6.98-9.02-9.47-15.06.29,1.53.77,3.25.73,4.81-.02,1.04-.05,1.09-.81,1.85-2.89-1.35-5.57-7.91-7.08-10.78.51,2.57,1.2,5.12,1.82,7.66-5.2-4.73-6.85-10.53-8.98-16.99-.04,4.3,1.88,9.26,2.58,13.62-2.58-4.31-4.36-8.9-6.11-13.59,4.03-11.45,14.5-22.74,22.56-31.71,3.14,5.5,6.87,10.49,9.75,16.19,4.23,8.39,7.53,17.95,12.61,25.81-4.08-12.46-9.63-24.38-14.92-36.36,2.62,2.93,4.45,6.54,6.48,9.89l.27-.91c1.3.92,1.19,3.33,2.48,4.44.11.09.24.16.36.23l-.61-.31.5.37c.93-.8.9-.76,1.04-1.98-.84-1.37-1.59-2.51-1.88-4.12l.52-.82c-2.31-7.68-6.37-15.51-9.91-22.7,2.77-6.32,6.43-12.25,9.85-18.23,1.89,4.72,3.55,9.45,5.59,14.12-.89-3.5-1.64-6.99-2.31-10.55,2.08,3.45,3.32,7.29,5.4,10.73l.68.09c.95,1.42,1.4,3.18,1.92,4.79l.92.36.9-.5.09-1.45c-1.03-2.05-1.38-3-.98-5.25.03-.16.06-.32.09-.5-.51-6.3-4.17-14.92-5.88-21.26,2.75-6.55,6.9-9.65,13.05-12.67,1.06-.17,1.92-.49,2.96-.11l.92-.58c1.03.74.67.26,1.11,1.42l-.09-.05Z"/>
  <path class="st1" d="M130.87,800.58c2.2,3.2,4.86,6.45,5.54,10.36l-.37.96c-2.81-.87-5.56-5.85-7.08-8.44-.07-.12-.12-.24-.18-.37l.16-.73c1.66.91,1.9,2.96,3.45,4.07l.45-.92c-.68-1.46-1.59-2.74-2.48-4.07l.51-.86h.01Z"/>
  <path class="st1" d="M192.09,803.01c-14.88-15.67-28.02-32.16-40.93-49.47-5.37-7.21-9.95-15.13-15.88-21.89h-.02c-5.9,8.36-12.39,18.02-20.1,24.77,1.35-6.48,3.98-10.9,7.58-16.38-5.56,5.66-11.12,11.09-17.35,16.01,3.59,7.3,7.09,14.67,11.27,21.64,4.61,7.68,9.92,15.02,14.21,22.89l-.51.86c.89,1.33,1.8,2.61,2.48,4.07l-.45.92c-1.55-1.11-1.79-3.16-3.45-4.07l-.16.73c-3.4-3.44-6.37-8-9.26-11.89-7.34-9.89-14.29-20.07-21.73-29.88-4.36,2.15-8.66,3.89-13.3,5.36,30.04,54.81,70.64,109.11,117.94,150.11,1.75-31.85,4.21-63.43,9.46-94.93-7.02-5.5-13.67-12.4-19.8-18.86ZM184.94,838.28c-.96,2.99-3.04,4.33-5.69,5.74-.85.08-1.78.16-2.63-.01-1.66-.34-3.32-1.63-4.25-3.03-1.74-2.63-1.79-6.37-1.13-9.34.86-3.87,2.55-6.18,5.86-8.28h.02s.44.01.44.01c.76.03,1.58.03,2.32.23,1.83.5,3.59,2.68,4.42,4.28,1.64,3.14,1.72,7.07.65,10.4Z"/>
  <path class="st1" d="M737.96,745.76c1.78,4.16,2.87,8.05,3.46,12.53,1.02,6.02,1.39,12.14,1.08,18.24l.13,3.25c.86-1.34.58-3.9.65-5.52.95,2.16-.46,5.83.88,7.68l.87-.09c.92-1.62.94-3.98,1.18-5.82l-.06,1.57.46.28.05,1.25c1.28-10.17,1.63-20.3.07-30.47,7.03,16.25,1.92,42.22-4.35,58.06l-2.09,5.18c-22.06,50.14-57.03,93.58-97.99,129.58-8.36,7.35-16.87,14.87-25.95,21.33,12.01-14.33,33.49-41.8,40.24-58.73-45.68,51.91-112.39,89.44-173.82,119.92,4.95-4.59,10.73-8.53,16.08-12.63,11.34-8.51,22.54-17.19,33.64-26.02,11.21-9.07,22.55-18.02,33.49-27.4,13.71-11.75,26.92-23.98,40.32-36.07,15.17-13.68,30.58-27,44.75-41.75,20.31-21.14,38.12-45.18,53.38-70.16,4.1-6.71,8.3-13.38,11.73-20.47,6.78-14.03,11.72-28.42,16.35-43.25-.45,14.4-6.63,38.76-10.26,53.32,6.16-12.45,9.49-26.1,12.4-39.61.51,4.82.29,9.73.25,14.57,2.6,3.18-1.82,11.03.43,15.24.08.15.17.29.24.44.08.15.15.3.22.46,2.3-4.58,2.66-15.47,3.3-20.92l.51.92c.92-3.28.12-8.09-.09-11.47-.14-4.49-.94-9.01-1.55-13.45v.02Z"/>
  <path class="st1" d="M291.87,490.44c-.79,1.15-1.59,2.31-2.4,3.45l-.71-.14c-13.93-2.88-28.92-11.35-40.53-19.55-3.85-2.71-7.54-6.45-11.73-8.53-1.64-.81-3.09-.86-4.72.13-5.54,3.37-16.88,29.54-20.91,36.63v-.02c-.15-.53-.02-.24-.49-.81-.45,1.09-.46,1.54-1.4,2.29l-.42-.59c.34-.59.47-.73.71-1.47.56-1.65.85-2.91.03-4.4,1.58-6.62,3.26-13.22,5.04-19.79-7.74,13.32-15.63,30.89-21.27,45.38,6.69,9.47,13.26,19.1,20.75,27.96,17.09,20.2,38.01,35,59.51,50.11,8.88-25.05,18.38-49.87,28.48-74.46,3.94-9.81,8.29-19.45,12.08-29.32-7.44-1.29-14.87-4.46-22.04-6.86ZM277.61,539.99c-.26,3.47-2.04,5.8-4.57,8.03-.95.2-1.9.44-2.88.43-2.17-.01-4.25-.9-5.68-2.55-1.59-1.84-2.1-4.3-1.78-6.67.43-3.26,2.2-5.36,4.75-7.27h-.02c.84-.11,1.7-.17,2.55-.17,2.18-.02,4.04.55,5.57,2.16,1.57,1.66,2.23,3.8,2.06,6.05Z"/>
  <path class="st1" d="M855.53,574.39c-2.34-5.13-4.29-10.97-7.15-15.8-1-1.7-2.33-3.51-4.25-4.14-1.16,2.31.49,6.68,1.29,9.09,1.98,5.96,6.75,16.8,7.62,22.47,3.23,8.01,6.84,15.85,10.83,23.51-4.65-5.79-8.6-12.11-11.8-18.81h-.01c-3.46-4.27-16.22-31.13-17.25-31.91l-2.18.56-1.89,1.53c-1.37.53-1.63.61-2.52,1.74-.37,3.86,1.86,7.37,3.47,10.75-2.64-2.6-4.51-5.54-6.59-8.57-8.48,6.41-16.34,13.92-24.31,20.96-8.54,7.67-17.44,14.93-26.67,21.75-4.9,3.66-9.79,7.63-15.39,10.17,8.62,29.06,21.05,57.28,28.15,86.78,30.56-26.72,68-64.34,86.05-101.07-6.96-8.93-12.8-18.68-17.4-29.02ZM798.48,645.28c-1.27,3.85-3.63,5.41-7.12,7.15-.92,0-1.77-.07-2.65-.33-2.17-.64-3.9-2.24-4.86-4.27-1.34-2.81-1.11-6.3-.08-9.16,1.35-3.72,3.37-5.51,6.89-7.1h0c1.06.09.94.05,1.99.28,2.21.5,4.14,2.37,5.22,4.3,1.51,2.69,1.54,6.26.6,9.13ZM830.76,560.9l1.89-1.53c.7,4.89,1.59,9.24,3.37,13.85-2.41-4.06-4.23-7.68-5.26-12.32Z"/>
  <g>
    <polygon class="st0" points="191.6 556.85 191.6 556.85 191.6 556.85 191.6 556.85"/>
    <path class="st1" d="M211.37,575.7c-4.38-3.81-16.25-17.27-19.77-18.86-5.18,11.4-10.86,22.13-16.94,33.06-1.91,3.43-3.55,7.12-5.77,10.37,2.29-15.02,9.28-29.14,12.34-43.98-4.5,6.24-21.7,42.28-22.8,43.22-.27-1-.43-1.98-.57-3.02-.84.72-1.09,1-1.28,2.19-.4,2.72,2.29,7.63,3.42,10.06,11.01,23.51,27.72,44.46,45.06,63.59,10.44,10.66,21.08,21.18,33.75,29.19,8.06-28.93,19.75-56.76,28.41-85.46-16.56-8.32-41.58-27.95-55.86-40.36ZM235.85,653.89c-1.21.06-2.6.09-3.8-.19-2.2-.52-4.14-2.31-5.21-4.24-1.31-2.35-1.46-5.21-.69-7.76,1.04-3.39,3.11-4.87,6.13-6.46h0c1.17-.03,2.39-.1,3.56.01,1.81.17,3.75,1.72,4.77,3.17,1.58,2.24,1.88,5.11,1.28,7.73-.84,3.65-2.89,5.89-6.04,7.74Z"/>
  </g>
  <path class="st1" d="M335.68,545.52l.42-1.08c1.94.72,3.86,4.6,5.07,6.42-.56-.82-.28-.2-.35-1.05-.14-1.83-1.29-3.93-2.03-5.6,9.42,3.87,23.17,10.24,27.76,20.02l-1.25,1.91c-1.83-3.04-3.46-6.47-6.76-8.12-.49,1.08.24,2.37.67,3.45,1.23,3.16,3.38,6.08,5.2,8.93l-1.49.16c-4.4-5.7-8.2-11.9-12.47-17.71l-.55.17-.29-1.02-.48-.07.15.97.37-.21c-.16.91.13.95.64,1.68-.71,3.54,3.84,6.39,2.86,10.2.65,1.46,7.64,11.46,8.92,12.65,3.58,5.02,7.53,9.76,12.42,13.56,9.64,7.51,25.81,12.88,37.73,14.83,3.71.61,13.74.54,16.43,1.97-8.8,4.17-24.63-.99-33.66-3.08,8.3,4.28,17.91,4.96,26.94,6.7-11.9,3.03-24,5.07-35.92,7.96,16.05.66,32.26-3.09,48.07-5.66,9.65-1.57,19.46-2.67,28.89-5.28-9.34,5.21-30.57,19.71-38.16,26.78,6.61-3.49,13.31-6.89,19.71-10.78,4.76-2.89,9.25-6.33,14.21-8.86-1.61,2.33-9.43,12.26-9.84,13.96,4.47-1.28,13.98-21.75,20.58-18.4l-.53.56c-2.59,2.76-4.86,5.57-7.06,8.65l.12.24c1.28-1.27,2.92-3.36,4.61-3.95-8.3,15.23-23.47,28.97-35.8,40.93-5.44,5.28-10.78,10.82-16.63,15.64-4.31,3.55-9.67,5.45-13.8,9.25-.17.16-.34.31-.52.47l-.08-9c9.24-8.9,19.65-18.21,25.67-29.69-10.12,7.59-22.78,21.17-32.77,26.85-.34-1.05-.14-1.59.05-2.66-2.56-1.86-5.45-3.02-7.79-5.16l-.1-.88,2.08-.95c.14-1.38-.89-3.01-.47-4.11,1.97.62,4.51,1.82,6.54,1.42-.01-1.29-.18-1.27-1.06-2.13-4.41-4.3-10.03-7.4-15.28-10.55,1.5.14,3.1.59,4.48-.02-3.63-1.36-7.41-2.21-11.1-3.36-4.02-1.26-7.95-2.84-12.03-3.88-1.13-2.06-2.09-3.91-3.82-5.56l-.43.27c.65,1.85,1.63,3.33,2.69,4.97-6.3-2.93-7.66-7.5-11.72-12.5l3.33,8.89c-5.31-5-8.02-9.4-10.92-16.06.77,3.43,1.53,6.87,2.49,10.26-4.43-5.89-8.31-11.3-11.51-17.99-.73-.7-1.39-1.47-2.05-2.22-1.34-.75-1.71-1.83-2.3-3.26-3.41-8.31-4.33-25.13-1.38-33.6,1.43-4.09,3.88-7.81,5.45-11.88l.2-.53c8.12,6.42,14.82,14.57,23.02,20.93l.25-.96c.55.47,1.08.93,1.61,1.42.33-1.28-.13-1.54-.71-2.66l.87-.3c-1.79-2.35-3.65-4.63-5.52-6.91-3.14-3.87-15.21-19.69-14.76-24.09l1.16.41c.9-.57,1.1-.84,1.69-1.68l.03-.05Z"/>
  <path class="st1" d="M882.63,666.74c-2.56-6.11-4.69-12.69-7.81-18.53-.83-1.55-1.55-2.78-3.1-3.71h0c-.74,7.8,9.31,40.47,12.28,49.34-7.91-13.23-15.61-26.98-24.58-39.51-20.7,23.85-43.06,46.21-66.92,66.91,3.87,14.4,7.36,28.91,10.5,43.49,2.49,12.15,4.67,24.58,7.67,36.59,32.59-31.81,66.94-67.02,84.1-110.11-4.58-7.96-8.59-15.99-12.14-24.46ZM825.5,740.16c-.91,2.01-2.73,3.81-4.88,4.46-1.81.58-3.79.31-5.39-.73-2.15-1.38-3.32-3.82-3.81-6.25-.39-1.96-.21-4.13-.05-6.11v.02c.23-.61.48-1.19.74-1.79,1.05-2.32,2.29-4.35,4.85-5.19,1.35-.44,2.75-.37,4.01.27,2.51,1.3,3.72,3.88,4.67,6.39.99,2.89,1.15,6.08-.14,8.93Z"/>
  <path class="st1" d="M182.45,673.91c-5.81-6.22-12.18-12.57-17.05-19.58-2.33,6.24-4.5,14.19-8.22,19.71l-.21-.74c-.87.51-1.97,3.44-2.45,4.41-.45-2.1,1.07-3.91.69-6-.04-.23-.1-.47-.15-.7,1.85-8.04,4.02-16.82,4.21-25.08-10.05,13.74-15.72,31.14-25.46,45.26h-.02c19.9,42.73,47.64,78.97,80.98,112.02,4.78-28.32,11.51-55.99,18.44-83.82-19.22-12.82-35.03-28.67-50.76-45.48ZM209.74,743.01c-1.23,3.53-3.11,4.85-6.41,6.37-1.43-.13-2.82-.29-4.13-.91-2.1-1-3.58-2.99-4.32-5.15-.97-2.84-.64-6.18.69-8.86,1.48-2.99,3.38-4.58,6.48-5.65h0c.95.01,1.9.14,2.81.39,1.94.55,3.52,2.16,4.46,3.89,1.61,2.95,1.51,6.81.42,9.92Z"/>
  <path class="st1" d="M687.41,543.03c1.63,2.74.81,7.19.07,10.14-2.03,8.22-6.28,15.61-11.53,22.16,3.62-2.6,7.21-5.34,10.28-8.59,1.92-2.04,3.58-5.19,5.84-6.72l.95,2.45c.77-5.52,2.32-11.12,4.84-16.11l.05,7.79c.99.51,2.08.96,3.02,1.55.68,12.04-2.72,20.98-6.37,32.21,3.57-5.25,6.04-11.01,8.66-16.78-.7,10.23-7.08,35.57-11.2,45.26-1.48,3.47-3.25,6.35-5.52,9.35l-1.62-7.74c-2,4.45-4.33,10.72-8.63,13.42-.67-1.3-.56-2.44-.61-3.87l-.55-.09c-2.24,3.16-3.36,7.25-7.07,8.95-.77-.93-.54-1.81-.58-2.99-1.2.1-2.03,1.23-2.8,2.15-2.47,2.89-4.3,5.54-7.39,7.88.18-2.4.38-4.8.6-7.19-2.59,3.14-5.92,8.3-9.73,9.78-.69-.17-1.07-.06-1.42-.76-.58-1.18-.54-2.58-.62-3.88-2.6,2.23-2.91,6.61-5.58,8.83-2.11,1.75-8.13,2.49-8.43,5.35,1.39,1.48,3.74,1.55,5.59,2.21-2.03,3.53-5.41,6.52-8.41,9.25-11.13-7.16-20.19-17.88-32.26-23.57,6.51,7.07,13.11,14.04,19.81,20.91,3.37,3.4,7.19,6.59,10.22,10.27-.66,1.5-1.09,3.12-2.59,3.96-3.46.53-7.15-2-10.53-2.89-.13-.15-.25-.3-.38-.45-4.36-4.9-9.92-8.77-14.65-13.33-13.32-12.87-26.42-26.88-36.49-42.42-1.6-2.47-4.29-4.99-5.23-7.72l.47-.62c4.37.97,6.64,7.03,10.39,9.04-1.21-2.67-3.37-4.84-5.33-6.98,4.23,2.15,8.44,4.3,12.57,6.64.6-.57.21-.38,1.22-.36.5.45,1.05,1,1.63,1.34.7.4,1.55.71,2.32.48-1.42-1.22-3.29-2.33-3.78-4.14-2.73-2.83-6.15-5.23-9.23-7.7,7.28,1.92,12.72,6.31,18.43,7.79-3.21-2.4-6.49-4.68-9.86-6.85,10.67.16,25.74,4.25,36.43,6.73,2.52-1.42,4.05.73,6.48.13l.21-.67c-1.87-.6-4.74-1.15-6.22-2.45-.15-.13-.27-.3-.41-.46-4.29-2.25-9.75-3.71-14.28-5.58,15.54-.78,30.91-1.92,45.49-7.87-10,.38-19.27,2.28-29.43,1.67,3.74-.72,7.65-.9,11.29-2.04,6.3-.76,13.13-3.23,18.82-5.97.39-1.51,1.48-2.28,2.54-3.39,2.03-1,4.02-1.99,5.94-3.2,3.28-1.38,6.22-2.91,9.75-3.58l-1.79-1.13c2.66-.67,5.47-3.53,7.45-5.39,9.81-9.17,18.64-20.25,19.12-34.17h.02Z"/>
  <path class="st1" d="M512.21,862.74l1.55-1.96c-.56,9.83.14,20.97-4.42,29.93-1.76,6.07-8.17,12.85-12.47,17.26-38.17,39.21-113.76,36.39-164.08,42.77-11.74,1.48-23.36,3.83-34.75,7.03-38.09,10.71-72.22,32.03-104.48,54.34,31.23-38.22,67.06-65.73,115.99-76.56,22.88-5.06,46.56-7.16,69.81-9.87,26.98-3.14,55.1-7.74,80.21-18.51,11.16-4.79,22.39-10.78,32.29-17.83,5.61-4,10.81-8.67,16.35-12.81,2.8-4.6,3.84-8.4,4.02-13.77h-.01Z"/>
  <path class="st1" d="M438.71,185.32l-7.78,6.28c-6.03,5.14-11.74,10.5-17.31,16.14h0c-5.43,6.35-11.09,12.52-16.25,19.09-16.99,21.78-31.18,45.61-42.23,70.93-3.84,8.78-8.31,18.83-8.9,28.46,3.41-6.63,11.35-27.01,15.26-31.34l1.02-.23c1.41-2.37,2.44-4.72,4.39-6.71l.19.48c-.11.15-.22.3-.32.47-.88,1.34-3.25,7.25-3.5,8.88l.37.47c-3.87,9.8-8.46,19.49-11.49,29.59-1.74,5.82-2.41,12.01-3.91,17.92-.19.75-.15.46-.02,1.28,1.13.24,1.18.17,2.14-.45,1.14-.75,1.97-2.63,2.67-3.84-.62,2.04-1.37,3.98-1.22,6.14l.67.73c.57-.09,1.14-.09,1.64-.38,0,0,0,0,0,0,.18-3.04.21-6.14.81-9.13.53,3.42,1.07,6.83,1.65,10.23,0,0,0,0,0,0,.32,2.28.46,4.53.57,6.83,1.19-3.22,2.16-6.35,2.92-9.7.11,2.74-.57,9.67,1.78,11.35.4.29.88.44,1.34.61h0c.83-3.38,1.78-6.67,2.88-9.96.61,3.05-.54,7.82-.83,11.01l.64,1.68.83.35.47-.39h0c.63-4.21,2.13-9.13,3.76-13.05l.47.29-.21,2.48c.92,1.91.32,3.47.55,5.54.6-1.11.64-2.09.85-3.3.15-.88.08-.57.66-1.43l.38.17s0-.01,0-.02c2.05-4.44,2.8-10.81,4.11-15.64,2.54-9.43,5.52-18.75,8.91-27.92,10.61-28.1,26.44-62.76,43.68-87.57,6.71-9.66,14.75-18.23,21.67-27.7-4.36-2.59-9.59-5.15-13.3-8.61Z"/>
  <path class="st1" d="M596.26,673.5c.6-1.4.81-2.66,2.1-3.54,5.65,2.25,17.5,14.69,22.28,19.49,1.65,1.66,3.62,4.3,5.52,5.52,2.83-.03,4.56,2.17,6.44,4,1.06,1.04,1.6,1.93,3.07,2.29l1.37-1.23c1.42,1.81,3.94,5.89,6.14,6.37,1.12-10.33,6.09-17.75,12.55-25.61-1.33,5.7-2.6,11.43-4.31,17.03-1.41,4.59-3.24,9.07-4.45,13.72.87,1.55.69,3.29.72,5.01,1.34,1.79,5.98,6.91,5.3,9.13-.05.17-.17.32-.25.5,10.03,15.76,21.22,32.84,26.7,50.9,4.23,8.49,7.72,18.9,9.97,28.11-2.33-3.08-4.46-6.86-6.1-10.37-10.09-12.17-19.22-25.12-29.66-37.05-9.94-11.36-21.1-21.74-31.22-32.99-5.08-4.75-11.47-12.87-16.83-16.54.14,1.02.3,2.03.49,3.06-2.23-2.96-4.33-5.74-7.14-8.18.21,2.42,1.91,4.22,2.09,6.47.17,2.01,1.57,4.26,2.78,5.86.94,1.59,1.84,2.8,1.76,4.7l-.6,1.29c.15.33.32.69.37,1.06.14,1.15.04,1.52-.65,2.42-2.46-.52-5.87-8.23-7.62-10.59l-.38-.52c.03.13.07.27.1.4,1.09,4.02,4.98,9.15,4.41,13.3-.4.36-.66.67-1.17.85l-1.97,1.6c-.67.65-.98,1.2-1.9,1.42l-3,.98c-.79-.48-1.42-.99-1.8-1.86-.56-1.25-.64-2.76-1.17-4.06-1.75-4.25-4.19-7.95-6.83-11.68-2.45-2.53-4.85-4.66-7.9-6.45,2.1,2.03,4.32,3.97,5.84,6.48-.63,1.04-1.07,1.35-2.16,1.88-1.3-.84-2.19-1.4-3.77-1.58l-1.94,1.09c-.09.39-.25.87-.25,1.28l-.51.56c-.63.83-1.16,1.56-1.58,2.51,1.4,2.94,3.87,5.19,6.02,7.58-9.69-1.81-18.73-1.38-28.43.15l-7.96,1.74c2.35-2.17,4.47-4.6,7.3-6.11,1.38-1.52,4.32-2.75,6.05-4.02-2.4.43-4.63,1.62-6.83,2.61,2.05-2.52,3.85-4.62,6.79-6.1,1.96-1.56,4.97-2.23,7.2-3.5-3.18.44-5.9,1.43-8.88,2.56.91-1.44,1.97-2.79,2.97-4.18,4.19-5.19,9.14-9.73,14.69-13.43,9.26-7.33,18.43-15.48,26.27-24.32v.02Z"/>
  <path class="st1" d="M429.15,673.44l.27,1.43.92.4-.29.69c4.51,4.15,8.93,6.91,13.31,11.63,11.84,9.86,25.05,18.51,33.76,31.51l-.83.4c-1.62-.97-2.89-2.75-4.16-4.16l-.65.46c1.34,1.52,2.91,2.95,3.5,4.92-.46,1.15-.1.73-.92,1.37.94,1.13,1.95,2.23,2.72,3.48-2.84-.83-5.78-1.46-8.66-2.19-2.95-.49-6.09-1.2-9.09-.98-14.9,1.11-17.84,11.31-34.1,2.06-.76-.3-1.33-.47-1.86-1.12-.52-.64-.11-1.66-.02-2.44,3.58-8.15,8.94-11.52,16.29-15.83-5.72,1.77-11.33,3.89-16.78,6.35-9.71,6.69-17.89,14.88-27.25,21.87l-.55.63c-3.83,4.35-8.5,8-12.4,12.31-19.82,21.98-35.29,42.18-48.4,68.88,1.03-3.95,2.25-7.94,2.94-11.96,8.04-32.36,29.66-78.56,53.44-101.88,6.74-6.62,14.78-11.56,22.27-17.22.05-.64-.02-.21.45-1.2,2.69-1.55,5.74-3.36,8.81-3.99.32-.07.65-.12.96-.17.74-1.22-.49-2.17.33-3.54l1.13.53,4.85-2.24h.03Z"/>
  <path class="st1" d="M583.04,187.63c1.11.01,1.85.27,2.8.82,7.07,4.06,13.46,11.27,19.11,17.13,31.46,32.65,55.41,76.68,69.39,119.63,2.15,6.59,3.71,13.45,5.43,20.17-1.76,1.68-3.76,3.09-5.7,4.53-1.26-4.57-2.96-8.68-5.13-12.89.71,4.95,2.66,9.63,3.53,14.58l-4.46,4.35c-.95-3.6-1.73-7.34-2.86-10.87-.33-1.05-.96-3.3-1.88-3.77-.18,5.24,3.02,14.28.19,18.83l-.86.16c-1.47-2.04-3.46-13.14-4.34-16.17-2.94-10.1-7.14-20.02-11.38-29.64-3.75-8.21-7.61-16.66-12.02-24.53-.59,3.39,27.08,57.99,23.35,73.06l-.66.14c-2.45-4.88-3.36-12.22-4.82-17.58-2.37-8.77-5.17-17.41-8.4-25.9-7.47-19.64-16.77-38.7-26.45-57.33-6.78-13.06-13.56-26.02-21.95-38.14-7.22-10.44-15.66-20.04-23.64-29.89l10.76-6.69h-.02Z"/>
  <path class="st1" d="M621.83,786.9c-3.71,19.37-11.69,29.83-24.25,44.36-4.61,5.32-9.16,11.04-15.02,15.05-1.07.73-2.11,1.51-3.38,1.83.45-2.95,10.29-11.77,12.74-14.75l-.27-.23c-4.88,4.64-9.88,10.23-15.86,13.44-1.84-.02-4.22.24-5.89-.6,2.37-1.84,5.45-2.52,7.98-4.33-4.56,1.51-10.88,3.98-15.58,1.72-.71-.34-.72-.38-1.25-.81l-.05-.46c6.68-1.84,9.34-1.59,15.2-6.36-6.95,3.08-13.67,5.9-21.28,2.98-1.71-.66-3.33-1.71-4.87-2.7,9.32.08,15.85.07,22.74-7.11.74-.76.51-.46.83-1.49-.89.12-1.43.34-2.21.78-4.31,3.53-9.41,3.88-14.78,3.35-8.4-.83-16.55-3.53-24.83-5.11-14.99-2.85-39.12-2.81-53.02,4.36v.84c-2.41,1.62-4.83,1.52-7.64,1.01-2.51-.45-6.09-2.59-8.55-2.25.39,2.12,3.59,2.7,2.84,4.94l2.65,2.54c-.01.8.15.56-.12.88l.83.25c.8-1.09,1.04-1.19,2.3-1.73,1,.58.99.52,1.32,1.62-1.38,1.45-4.31,2.27-6.3,2.34-1.27.04-2.51-.18-3.74-.45l-.08.41c-.51.31-.51.35-1.18.53-5.6,1.4-20.26-5.01-25.09-8.4l-.56-.39-.4.21c.08.16.14.33.23.49,3.53,5.56,17.89,8.32,24.06,10.4-9.22.66-15-1.23-23.21-5.15-.75-.05-1.52-.74-2.16-1.15l-1.37.47c-5.78-4.2-13.56-20.19-16.93-27.09,6.01,5.34,12.64,8.48,20.7,9.22,22.18,2.03,51.88-15.07,78.27-14.07,8.7.33,17.68,1.45,26.1,3.71,12.29,3.31,23.24,8.65,36.4,7.77,8.42-.57,23.46-8.01,29.01-14.29.11-.13.22-.26.34-.39l.97-.3c.28-.49.34-.89.46-1.44l-.96-.71c-2.72.16-10.3,7.44-13.5,9.16-.03-1.36,7.3-5.59,8.48-6.66.7-.63,1.25-1.7,1.7-2.5.11-.2.22-.4.33-.61,1.39-.67,2.35-.26,3.85-.05,1.35-.79,1.55-4.19,2.97-5.58.92-.9,1.86-1.78,2.81-2.65l.67.04-.45,1.01c-2.09,1.73-3.71,3.42-4.45,6.08.15,1.19.38,1.62,1.18,2.51l4.93-7.95,1.77-2.48.3-.02c-1.1,5.05-3.51,10.2-5.84,14.79-.96,1.9-4.28,6.16-4.24,7.97,4.43-3.72,11.63-21.19,14.28-26.83l.06.02Z"/>
  <path class="st1" d="M435.3,146.33c16.98-22.8,35.16-45.45,56.59-64.28,2.81-2.48,5.88-4.52,8.77-6.88,2.73-2.23,5.04-4.81,8.12-6.6.65.82.13,3.05.03,4.15-1.32,7.53-2.18,15.12-3.6,22.64-1.59,8.34-3.86,16.82-4.89,25.23-1.73,5.96-2.63,12.36-3.84,18.45-2.33,11.7-4.48,23.43-6.48,35.2-4.96-2.01-9.89-4.09-14.93-5.89.47-1.85,1.01-3.64.98-5.58-.58-1.79-.53-3.49-.53-5.35l-.18.24-.17-.47c-.47.48-.92.94-1.36,1.45l-.35.42-.98.24c-1.04,2.14-1.15,3.88-2.76,5.8l-1.43-.06,1.11.21-1.13-.43c-.1-6.66,3.01-14.44,4.65-20.91-3.58,5.3-5.65,10.79-8.62,16.32-.61,1.12-.68,1.38-1.85,1.74l-.68-.5c-1.51-5.86,8.4-20.22,7.37-27.14l-.71.07-1.95,2.85-2.95,1.32c-3.88,1.76-10.68,13.08-13.27,16.93-5.16-2.79-10.29-5.61-14.94-9.21v.02Z"/>
  <path class="st1" d="M286.36,720.11c-.2-2.36-.38-4.69-.39-7.06,2.41,8.24,4.53,16.56,6.9,24.81,1.41,4.89,3.19,9.78,4.4,14.7l.18.45c2.37,5.82,3.91,12.08,5.91,18.05,3.04,9.06,6.47,18.1,10.06,26.96,15.49,38.19,43.3,73.19,75.6,98.52-20.89-10.31-40.58-22.95-57.36-39.2-5.27-5.11-9.6-11.59-15.01-16.41l-.79-.05c-2.55-1.48-3.6-2.68-4.62-5.47l.8-.4c-4.77-6.35-9.7-12.68-13.84-19.47-9.21-15.08-18.08-36.57-20.67-54.12-3.75-12.27-4.87-26.29-6.3-38.98,4.03,10.69,5.82,22.9,8.31,34.06,3.69,9.93,6.31,22.36,12.67,30.92l.23-.9c.57.65,1.27,1.33,1.71,2.08.08.14.14.29.22.44.08-.81.16-1.58.34-2.38.05-.21.1-.43.15-.65l-.03-.59c-3.05-7.23-5.5-14.8-7.88-22.27-2.89-10.1-6.52-24.53-5.93-34.95,0-2.28-.31-5.02.48-7.17l.85.06,1,1.97.89.12.43-.71.45.88.67-.44.56-2.86v.06Z"/>
  <path class="st1" d="M325.98,320.27c.26-9.47,2.31-18.27,5.17-27.28,4.54-14.29,10.18-28.27,17.75-41.25,16.96-29.07,47.7-59.65,77.69-75.18,3.24,2.69,6.6,5.64,10.26,7.7-1.86,1.42-4.61,3-6.22,4.65-2.28,1.59-4.65,3.11-6.67,5.02-31.41,23.39-51.34,59.36-73.05,91.06-2.02,3.96-10.45,22.85-12.99,24.44-.81,1.48-1.31,2.97-2.79,3.81l-.9-.33c-1.48,3.66-3.05,7.17-4.92,10.65,1.48-12.07,6.01-24.28,9.88-35.76-6.66,9.37-9.66,21.68-13.23,32.47h.01Z"/>
  <path class="st1" d="M622.32,772.74l.58-1.29,1.05,3.16c-1.76,4.47-6.3,10.73-10.23,13.53-10.49,9.89-24.07,22.96-39.51,22.56-3.74-.09-16.82-1.59-19.03-4.15-.4-.47-.3-.43-.39-1.04-1.59-.85-2.48-1.78-3.64-3.14-7.72-2.77-30.97-8.08-38.96-7.96-20.57.3-68.75,19.78-83.83,15.72-10.03-2.7-15.38-10.45-20.36-18.88,1.27.69,2.53,1.4,3.86,1.96,24.65,10.68,70.8-9.79,98.63-10.17,11.3-.16,21.84,2.46,32.47,5.97,23.77,7.84,37.59,8.51,61.31-.62,5.93-3.23,12.2-7.16,16.18-12.73.86-.62,1.66-1.9,1.88-2.94h0Z"/>
  <path class="st1" d="M388.94,779.58l-.69-1.69.44-.39c3.37,2.6,5.49,7.97,7.65,11.6l2.39-1.63.87-.14c6.92,16.72,15.33,39.23,27.68,52.33,2.15,2.27,10.61,8.9,11.23,10.46.19.48-.17,2.49-.23,3.08-.35,3.52,1.76,5.36,2.58,8.49,7.18-1.07,13.8-4.4,20.54-6.94,5.86-2.19,11.84-4.07,17.9-5.63-.11.09-.23.17-.33.26-3.27,2.75-12.05,5.96-13.59,9.46l-.49.76c3.12,2.19,7.85-.11,9.88,3.26l-.05,2.62.7.2c1.68.19,3.41.13,4.68,1.39l.19,1.84c-1.44,3.5-2.75,6.39-5.27,9.26l-2.09,3.24c-3.32,4.78-9.05,13.18-15.13,14.34l-1.66-1.05c-1.31,1.51-2.53,2.78-4.16,3.95.06-.87,6.19-11.17,7.22-13.61l.72-2.63-.34-.36c-7.38,7.11-14.86,17.05-24.86,20.65,8.07-6.46,13.42-11.69,17.77-21.24.66-1.44,1.94-3.52,2.22-5.04.04-.22-.03-.46-.05-.69-5.33,7.92-9.91,18.2-18.43,23.38-1.07.83-2.31,2-3.5,2.61-.07-.1-.13-.21-.21-.3-1.26-1.42-1.81-2.09-3.68-2.29l2.24-2.63c-.99-.47-1.57-.96-2.33-1.74-1.1,1.05-2.18,2.03-3.42,2.93,4.09-7.49,6.2-14.56,6.95-23.04-1.23-11.61-6.33-19.89-11.9-29.89-11.03-17.28-24.35-32.32-38.15-47.41l.66-.31,1.36.78.36-.48-1.16-.98.97-.33c3.11,3.66,6.03,7.91,9.59,11.12l.89,1.08c.53-.22.88-.5,1.34-.84-.12-2.41-1.86-4.19-2.27-6.51-.04-.21-.07-.43-.1-.65-1.63-4.92-4.86-9.88-5.47-15.07-.02-.69.03-.39-.18-1.07-.29-.91-.64-1.71-.62-2.69.02-.8.84-1.27,1.37-1.8h.02Z"/>
  <path class="st1" d="M727.06,663.36c2.77-7.45,3.52-16.6,4.47-24.49l.56.21c2.7,40.89-14.07,75.65-40.42,105.83-4.6,5.25-9.92,9.91-14.4,15.22l-3.15-5.95c5.09-6.08,16.27-20.56,15.57-28.96-.02-.21-.07-.41-.1-.63.37-2.12,1.29-4.22,1.99-6.26l-1.09-2.11c4.23-11.73,6.97-23.61,9.64-35.76l.47,2.71c.67-.51.94-.82,1.41-1.48.49-2.58.84-5.26,1.85-7.7l.29.22c2.89-4.35,3.62-25.03,4.14-31.42,3.27,14.58,2.12,28.38-.61,42.92,3.78-6.72,6.24-22.01,7.33-29.75.45-3.19.21-9.63,1.63-12.11l.41.39c1.45,13.68-.84,29.61-4.23,42.86,6.95-14.46,9.07-30.68,11.14-46.4,1.35,6.9,1.07,13.3.49,20.24l.82.37c-.17,1.84-.99,4.23-.67,5.95,1.05-1.2.99-4.16,2.13-4.63l.33.69h0Z"/>
  <path class="st1" d="M348.29,743.06c-5.2-9.48-8.07-19.81-12.98-29.32-5.64-15.46-10.59-31.5-14.32-47.53-1.99-8.53-2.87-17.6-5.54-25.92.42,10.84,2.2,26.8,6.12,36.9l-.95.23c-1.47-4.44-2.75-8.92-4.03-13.42l-1.62-5.11-.9-3.86c-.71.69-.81.76-1.82,1.04l.06.72.54,5.42c-.57,1.55-1.12,3.01-1.93,4.44l.76,3-1.83,1.5c.46,3.04.97,6.03,1.61,9.04.68,4.25,1.8,8.39,2.9,12.55-1.15-2.3-2.44-5.71-4.33-7.46-1.39.27-1.45.37-2.67-.27-2.96-4.03-3.94-9.62-5.06-14.42l-.84.26-3.61-14.83-.44.68c-1.18-.8-2.16-1.27-3.5-1.73-.43-1.58-.87-3.15-1.37-4.71.35,7.96,1.49,16.27,3.77,23.9-.36,3.34-.08,6.44.25,9.76-2.17-6.91-4.96-13.72-6.76-20.73-.83-3.23-.85-8.6-2.7-11.31-1.2,14.96,13.06,47.74,21.89,60.27,1.93,3.15,4.08,6.05,6.32,8.98,8.85,11.18,18.39,21.29,28.75,31.08.35-.75.27-.43.35-1.27.19-2.12-3.89-5.75-5.21-7.4-.39-2.11-.89-3.06.05-5.05-4.34-8.88-7.3-17.31-9.67-26.86,5.41,11.63,12.91,33.57,22.92,41.1.36-2.6-2.89-7.28-4.19-9.64ZM298.28,666.46c-.11,1.12-.06,2.16-.03,3.27.02.67.04.41-.25,1.05l-.95-4.7-.43-.04-.31.38c-1.43-3.46-1.87-7.78-2.43-11.48,0,0,0,0,0,0v-.02s0,.01,0,.02c1.34.47,2.32.93,3.5,1.73-.46,2.83.49,5.98,1.01,8.79l-.11.99Z"/>
  <path class="st1" d="M310.65,283.46c1.82-5.29,4.32-10.4,6.72-15.45,4.41-9.28,9.09-18.26,14.88-26.77,19.95-29.29,52.88-58.47,84.71-74.2,2.62,2.47,5.33,4.9,7.77,7.55-34.28,18.12-63.03,45.16-83.22,78.27-4.97,8.15-16.02,28.37-21.71,33.84l-2.96-.42-1.15,1.75c-.61-5.37,17.97-35.47,17.08-37.5-7.98,9.64-13.72,24.29-22.13,32.92h0Z"/>
  <path class="st1" d="M640.34,531.86c1.27.47,2.44,2.09,3.12,3.25,1.88,3.27,1.19,7.54.27,10.99-3.01,11.23-12.3,21.19-22.21,26.82-14.2,8.08-27.81,5.16-42.76,1.06-3.28-1.07-6.48-2.41-9.68-3.68,14.67-6.39,26.53-15.54,40.04-23.74,9.71-5.89,20.66-10.59,31.22-14.73v.02Z"/>
  <path class="st1" d="M390.4,530.49c4,2,12.31,9.47,16.86,12.51,15.34,10.23,30.87,19.22,47.42,27.37-4.13,1.65-8.34,2.96-12.58,4.25-11.38,2.49-22.49,4.11-33.86.61-10.49-3.2-19.21-10.54-24.15-20.33-2.06-4.03-5.23-13.64-3.2-18.04,1.73-3.76,5.96-5.01,9.51-6.38h-.01Z"/>
  <path class="st1" d="M615.24,160.31c11.25,4.62,22.11,11.92,31.96,19,28.49,20.1,53.66,44.56,74.56,72.48,3.36,4.5,8.67,10.27,9.41,15.96.31,2.45-1.08,4.72-2.48,6.59-.67.87-1.22,1.39-2.14,1.99-.18,1.36-.08,2.08-.96,3.19-1.69-.75-7.18-10.29-8.74-12.53-10-14.61-20.89-28.6-32.59-41.89-19.95-22.39-45.77-45.49-71.92-60.38l2.91-4.4h-.01Z"/>
  <path class="st1" d="M231.53,100c7.51,8.1,14.65,16.7,21.68,25.21-5.29,5.07-14.23,15.03-20.85,17.71l-.42-.29c.77-.92,1.63-1.73,1.78-2.97l-.64-.6c-1.08.51-.76.21-1.48,1.06-3.57,4.25-7.47,5.15-12.37,7.44,3.32-2.82,5.26-5.45,7.21-9.32-4.76,4.11-9.84,7.72-14.88,11.46,3.61-4.7,6.87-9.55,10.09-14.52l-4.64,4.12-2.17,1.97c-3.13,2.68-6.28,7.13-9.75,9.02-.17.13-.44.06-.65.07-.19-2.21,2.86-5.78,3.97-7.88-2.09.59-4.53,5.32-6.79,6.83-1.81-.1-2.99-1.15-4.39-2.2l.26-.47c.21-11.5,25.74-36.91,34-46.69l.02.02Z"/>
  <path class="st1" d="M208.21,73.3c7.01,8.93,15.13,17.33,22.63,25.86-8.04,7.21-16.69,13.52-25.68,19.48,1.73-2.57,3.24-5.2,4.73-7.92-1.48,1.31-2.72,2.76-4.02,4.25-.4-1.39-1.41-2.34-2.34-3.4l-.21-.38c-3.13,1.36-10.55,9.38-13.11,12.07,2.17-5.14,6.05-9.45,7.85-14.74-2.78,2.36-13.86,13.68-16.25,13.76-.26.32-.47.61-.84.86-1.03.69-1.91.73-3.1.56-1.33-1.22-1.32-1.63-1.74-3.33l-.69.42-.75-.81c0-.08-.02-.17-.02-.25-.83-11.34,25.4-36.75,33.5-46.4h.02Z"/>
  <path class="st1" d="M186.29,47.6c6.93,7.9,14.34,15.68,20.68,24.05-8.39,7.02-15.93,15.97-25.84,20.86-1.86.92-3.68,2.01-5.47,3.1l.03,1.42-.82.37c-1.34-.81-1.71-1.39-3.27-1.05-.92,1.36-1.58,2.65-3.03,3.5-1.06-.81-1.07-.79-1.37-2.1.54-1.55,1.15-2.64,2.12-3.97l-.27-.25c-2.99,1.59-2.51,3.7-4.9,4.97-.5-.67-.45-.33-.38-.95.33-5.22,4.63-11.79,6.96-16.48-.2.19-.4.38-.62.58-3.47,3.14-6.26,8.83-9.91,11.23l-.38.61c-.84,1.34-1.1,3-2.61,3.56l-.45-.39c-1.17-1.03-1.77-1.31-3.14-1.92-.13-.06-.22-.18-.33-.28-.21-1.28-1.01-1.83-1.92-2.66l-.42-.37c.1-.32.15-.66.3-.96,1-2.14,4.16-5.35,6.33-6.34,7.51-13.84,19.94-23.69,28.68-36.51h.03Z"/>
  <g>
    <path class="st0" d="M859.78,22.03s0,0,.01.01c0,0,0,0,0-.01h-.02Z"/>
    <path class="st1" d="M897.35,62.61c-5.43-7.5-10.61-15.72-17.06-22.38-6.36-6.58-13.83-11.97-20.51-18.19-6.16,8.26-13.36,15.63-19.79,23.66,6.17,5.77,16.54,16.71,25.27,19.9-2.09-2.42-4.09-4.93-6.06-7.63,0,0,0,0,0,0h0c4.06,2.36,7.94,5.43,11.79,8.34l.23-.24,1.75-.04c1.86,1.01,3.33,2.57,5.29,3.35-3.01-3.51-6.07-6.99-8.98-10.6,5.43,3.68,10.29,6.96,14.7,11.91l-.25-.78c-1.36-4.13-6.04-10.12-6.54-13.41,3.45,4.06,7.42,8.51,11.68,11.73-1.9-4.73-4.93-8.85-6.78-13.54,3.71,4.2,7.37,8.46,11.69,12.05-3.55-6.49-7.35-12.95-10.24-19.76,4.97,5.36,7.62,11.26,13.81,15.63Z"/>
  </g>
  <path class="st1" d="M792,101.4c8.85,6.52,18.77,15.08,24.58,24.5,2.46,3.99,4.2,8.43,6.5,12.53,1.68,3,3.79,5.67,5.45,8.7-6.34-4.92-11.19-12.26-16.19-18.51,1.69,4.01,3.62,7.68,5.88,11.41,2.27,3.19,4.54,6.34,6.45,9.77l-6.59-6.01c-.71,1.07-1.43,2.15-2.15,3.22-.12.21-.38.31-.6.45l-2.39-1.8-.31.77c-.93-.59-1.8-1.17-2.65-1.86l.41,3.22-.45.45-.14-.47c-5.99-3.12-11.78-7.13-17.73-10.45,2.79,3.2,6.12,5.9,9.32,8.68-10.77-4.96-19.26-14.04-28.37-21.45,6.4-7.64,12.96-15.2,19-23.13h-.02Z"/>
  <path class="st1" d="M813.95,76.18c.29.12.61.22.89.37,2.88,1.49,6.09,4.58,8.67,6.68,12.89,10.5,22.05,20.79,27.66,36.77-5.47-4.76-9.83-11.01-13.96-16.91,2.2,6.98,6.55,11.81,9.37,18.34-6.31-4.88-11.83-10.34-16.87-16.52,1.56,3.28,3.87,6.2,5.98,9.14,1.85,2.89,3.34,5.76,4.75,8.9-4.82-3.74-9.08-8.31-13.75-12.27,2.32,4.09,4.88,7.98,7.5,11.87-5.24-3.25-9.99-7.38-15.07-10.9,2.38,3.1,5,6.05,7.5,9.06-11.95-5.35-21.03-14.73-30.68-23.37,5.86-7.16,11.85-14.21,17.98-21.16h.02Z"/>
  <path class="st1" d="M254.7,127.17c6.53,7.19,13.68,14.24,19.7,21.83-6.16,7.62-14.93,15.05-23.2,20.23l-5.4,3.61c1.76-3.02,3.8-6.06,4.98-9.35-1.02.56-2.03,1.07-2.97,1.77-.95-1.13-1.6-2.43-2.3-3.71l-.14-.16c-1.63.59-8.04,9.13-9.64,10.92,1.25-2.97,5.7-11.9,5.42-14.42l-1.28,1.1c-3.17,8.14-8.22,15.49-13.41,22.46.79-2.3,1.58-4.56,2.6-6.77l-.32-.34c.15-1.73,1.39-3.28,2.27-4.77-1.84,1.49-3.49,4.69-5.51,5.37-.15.04-.29.13-.45.12-1.21-.05-1.18-.39-1.85-1.2l.48-.92c-.92.04-1.27.01-2.18-.28l.03-1.07c-1.02-.51-1.09-.5-1.59-1.53.34-2.11,1.9-3.82,3.13-5.52,2.38-3.36,4.7-6.72,7.47-9.77,5.29-7.93,17.31-20.67,24.18-27.6h-.03Z"/>
  <path class="st1" d="M162.16,21.34c4.91,3.77,17.94,19.31,22.66,24.72-7.58,8.2-15.81,14.38-25.65,19.61,1.17-1.4,2.61-2.88,2.78-4.77-1.1.74-1.59,1.28-2.28,2.42-.61,1.02-1.16,1.8-1.97,2.66l-.43-.44c.07-.74.05-1.23-.04-1.99-.78,1.29-1.33,2.58-2.64,3.36-.25-1.83.61-3.29,1.33-4.91-2.29,2.31-4.47,4.6-7.18,6.42l-.38-.13c.99-3.3,3.05-6.46,4.54-9.6-4.92,3.17-8.24,7.48-11.94,11.91,1.36-3.74,3.36-7.33,5.13-10.88,1.15-2.78,2.79-5.28,4.37-7.83-6.24,5.51-10.53,11.87-15.93,18.1,3.1-5.33,5.91-10.74,9.2-15.96.81-1.29,2.2-3.24,1.86-4.75-5.19,2.02-12.03,14.64-15.43,19.32,3.08-16.56,21.97-33.83,31.99-47.26h0Z"/>
  <path class="st1" d="M837.3,49.42c2.13,1.35,4.05,3.55,5.95,5.21,3.97,3.46,8.05,6.85,11.66,10.7,5.43,5.78,13.65,17.58,16.35,25.03l-.33.52c-4.96-2.68-8.11-8.83-12.25-12.66-.16-.15-.33-.29-.5-.45.06.13.12.26.18.39l.32.65c2.92,6,7.31,11.12,10.3,17.11-4.94-3.85-8.63-8.37-14.14-11.62,1.66,2.94,3.62,5.72,5.5,8.52l.44.96-.44.43c-4.66-1.82-9.76-6.48-13.94-9.48l7.59,10.3c-4.6-3.55-9.62-8.08-14.97-10.31,2.25,3.13,4.73,5.52,7.58,8.08-10.98-4.83-19.62-13.58-29.29-20.5,6.88-7.39,13.35-15.24,19.98-22.87h0Z"/>
  <path class="st1" d="M769.58,127.79c2.81,1.22,5.7,4.35,8.06,6.45,12.27,10.96,21.96,22.34,28.22,37.84-4.39-4.52-7.21-10.26-11.48-14.94,2.78,6.18,6.3,12.24,8.2,18.77-5.97-4.75-10.57-12.1-15.61-17.84,1.1,2.41,2.36,4.72,3.61,7.05,1.9,3.17,3.67,6.4,5.32,9.71-4.8-4.52-9.69-8.94-14.68-13.24,2.65,4.09,5.25,8.2,7.8,12.35-4.59-3.07-8.72-6.7-12.98-10.19.21,1.23.6,2.41.96,3.61-3.08-.59-20.3-16.3-24.41-19.69,5.95-6.28,11.43-13.2,16.98-19.85v-.02Z"/>
  <path class="st1" d="M412.06,159.58l2.81,3.98c-33.17,15.45-66.86,44.75-89.69,73.11-4.83,5.99-9.6,12.08-14.1,18.31-2.65,3.68-5.33,8.98-8.56,11.98-.99.06-1.86-.19-2.82-.4-1.2,2.25-1.9,4.44-3.7,6.3-.52-1.17,1.8-6.84,2.38-8.35,4.24-10.89,11.93-21.46,19.13-30.59,20.55-26.11,42.14-44.24,70.57-61.13,7.86-4.68,15.74-9.24,24-13.21h-.01Z"/>
  <path class="st1" d="M625.14,597.12c-1.31.1-2.42.26-3.66-.23,1.22-1.63,4.19-2.59,5.96-3.75,3.89-2.52,7.61-5.57,11.05-8.66,5.89-5.3,9.76-11.85,14.92-17.75,4.26-4.87,26.17-25.41,31.25-26.92.73,13.07-3.4,20.51-11.79,29.91-2.88,3.23-6.4,7.48-9.91,9.95l-2.17,2.4.05.51,1.79,1.13c-3.54.67-6.47,2.21-9.75,3.58-1.92,1.2-3.91,2.2-5.94,3.2-1.06,1.11-2.15,1.88-2.54,3.39-5.69,2.75-12.53,5.22-18.82,5.97,1.9-2.37,13.5-3.38,16.38-6.09-1.12-.12-.78-.22-1.7.1-4.68,1.63-9.39,2.69-14.23,3.72l-.89-.47h0Z"/>
  <path class="st1" d="M311.64,200.2c-7.7,6.18-27.97,20.36-32.11,28.02-.56,1.03-.67,1.13-.34,2.3l1.66.53h0v-.02h.02c1.95-1.25,3.72-2.7,6.09-2.95l.72.43c-.55,1.78-2.89,3.01-4.38,3.99h0c-.51.88-.61.7-.4,1.8,3.45.38,6.65-3.26,10.31-3.45,1.6,1.33,3.3,2.36,4.53,4.06.92,1.17,1.77,2.32,2.56,3.58-.48,2.47-5.86,7.06-7.65,10.42,2.37-1.03,6.64-4.66,9.09-4.16-.22,2.3-2.56,4.14-3.37,6.46l.69.24c3.51-4.39,6.31-9.33,9.58-13.91,5.13-7.17,10.78-14.05,16.2-21-4.45-5.4-8.96-10.75-13.18-16.33Z"/>
  <path class="st1" d="M794.62,393.19c.66.44,1.14,1.1,1.67,1.69-.11.24-.16.52-.32.73-1.97,2.77-10.77,8.36-13.97,10.71-32.1,23.64-68.52,40.5-104.77,56.72-34.86,15.6-73.23,31.41-109.78,42.14-.98.22-.52.27-1.4-.1,1.67-2.51,10.32-6.87,13.35-8.16,5.25-2.25,10.78-4,16.13-5.97l35.19-13.06c29.4-11.16,58.76-23.48,87.1-37.11,17.3-8.32,34.94-17.57,50.93-28.24,8.87-5.91,17.49-12.72,25.85-19.34h.01Z"/>
  <path class="st1" d="M508.03,841.27l1.21.72c.54,2.98.05,5.89.46,8.84-.08,2.98.08,6.47-.94,9.3-.57,5.84-3.18,10.07-7.67,13.79-.65.54-1.31,1.05-1.98,1.56.7-1.64,1.64-3.4,2.13-5.1.29-1.43.86-2.92.44-4.33-2.1,1.94-3.16,4.74-5.23,6.59-2.35-.07-3.11.73-4.84,2.17-4.15,1.63-17.02,15.91-23.04,19.9,5.64-6.89,11.38-16.66,11.71-25.8l-.19-1.84c-1.27-1.26-3-1.19-4.68-1.39l-.7-.2.05-2.62c-2.01-3.37-6.75-1.06-9.88-3.26l.49-.76c1.82.39,3.62.59,5.49.65,13.84.51,27.53-9.16,37.17-18.2h.02Z"/>
  <path class="st1" d="M254.66,416.32c-1.07-2.28-3.37-3.7-5.3-5.19,1.09.53,2.11,1,3.28,1.35l.95.26c8.94,4.52,17.18,10.61,26.04,15.34,22.71,12.11,46.52,23.24,70.22,33.3,21.72,9.22,44.04,17.6,66.25,25.59l26.17,9.49c2.76.98,5.66,1.71,8.34,2.86,2.21.95,4.35,2.13,5.83,4.07l-.47.32c-14.05-4.47-27.9-9.73-41.85-14.54-37.76-13-74.44-26.56-110.25-44.4-11.13-5.55-22.17-11.17-32.79-17.68-4.87-2.99-12.41-6.91-16.45-10.77h.02Z"/>
  <path class="st1" d="M599.84,154.79c3.28.97,6.47,2.34,9.65,3.58-16.37,18.46-38.61,31.94-61.76,40.26l-6.44,2.21-1.6-8.07c22.93-8.55,42.58-20.91,60.15-37.99h0Z"/>
  <path class="st1" d="M598.9,747.37c.31-1.44.45-3.2,1.46-4.31l.65.26c2.61,12.15-4.09,30.48-10.67,40.48-1.04,1.59-2.15,3.06-3.58,4.3h-.7c.56-4.25,3.58-8.44,4.82-12.64-3.11,4.17-4.08,9.38-7.65,13.38-10.1.19-18.6-.96-27.96-4.81,6.54-2.29,13.6-5.72,19.54-9.25,13.01-7.72,16.32-18.65,19.85-32.71.24,5.74-.68,11.33-.71,17.06,1.04-2.97,1.32-6.59,2-9.7l.4.46c.48-.55.66-1.53.88-2.2l1.68-.33h-.01Z"/>
  <path class="st1" d="M424.26,153.75c2.79,1.01,12.42,11.11,15.84,13.72,13.69,10.42,29.23,19.16,45.55,24.67-.47,2.46-.38,5.61-1.87,7.67-1.52.57-2.12.1-3.63-.38-26.35-10.09-44.09-21.39-64.01-41.69l8.12-3.99h.01Z"/>
  <path class="st1" d="M420.25,727.66c3.52,8.57,7.33,16.64,11.82,24.75l.44.53c2.42,2.95,4.26,6.57,6.51,9.68,6.52,8.98,13.76,17.07,22.41,24.03-5.98.95-12.26,2.34-18.3,2.6-7.48-3.3-10.54-8.05-13.43-15.47-1.54-3.94-3.43-8.71-3.9-12.89-3.55-9.92-4.89-22.75-5.55-33.23Z"/>
  <path class="st1" d="M493.53,742.37c4.63,2.1,9.47,4.63,14.51,5.5,13.06,2.28,31.71-12.16,48.14-13.01.98,1.4,2.13,2.71,2.45,4.42.59,1.87,1.73,3.63,2.46,5.5-.7.85-.65.84-1.73.99-1.71-1.4-2.8-5.4-3.96-7.41-.38-.67-.11-.44-.94-.65l.22,2.47.97,2.43-2.62,1.68-1.18-2.34-1.34-2.29-.44.46c-1.82.51-2.14,1.79-3.64,2.67-1.4-.19-2.54-.18-3.81.51-1.83,1.05-3.42,1.91-4.83,3.53l-.25.98c-.97.16-1.69.18-2.66.07-1.23-.15-.69-.22-1.74.17l-.89,1.29.15.26-2.7.99-1.41.64-.29,1.33c.16,1.91.67,3.92-.14,5.67-1.46.75-2.96.69-4.57.76-.08-.91-.44-1.15-.96-1.87-.74-.77-1.44-1.22-2.37-1.74l-.58.68-3.08,1.85-.08.92-2.05-.19c-1.13.36-2.16.45-3.33.55-1.44-.87-1.51-1.38-2.21-2.86-.2-.54-.64-.94-1.01-1.38l-.42.33c.16,1.55.5,2.35-.27,3.72-1.13.08-1.75-.18-2.56-.98-.66-.66-1.21-1.52-1.75-2.28-3.66-3.41-7.02-7.19-11.15-10.04,2.16,2.96,4.79,5.49,7.35,8.08-.86,1.44-1.65,2.48-2.82,3.68-3.83-7.25-13.1-16.28-18.55-22.98,5.65,1.92,10.91,5.01,16.1,7.9h-.01Z"/>
  <path class="st1" d="M403.63,740.35c1.47,2.16,1.55,7.06,2.45,9.78,1.83,5.49,4.31,10.74,7.38,15.64,5.9,9.31,16.22,15.06,21.89,23.93l-1.23.11c-4.19-.28-8.38-.72-12.47-1.73-7.02-1.75-13.97-5.16-17.67-11.7-5.61-9.89-3.26-25.63-.35-36.03h.01Z"/>
  <path class="st1" d="M619.32,742.53c.59,8.53-3.09,14.73-3.76,22.83.89-.69,1.16-2.21,1.31-3.33.1-.8.19-1.55.4-2.33.77-2.86,2.8-10.2,5.21-11.7l.75.61c2.72,9.37-3,12.66-3.92,19.96l.85-.31c3.05-4.52,5.23-12.74,5.1-18.24-.02-1.06-.13-1.22.38-2.19l.48.49c.43,2.33,1.35,5.49.68,7.79-1.25,4.25-4.39,11.71-4.48,16v.65c-.22,1.03-1.02,2.32-1.88,2.94-7.47,5.59-17.79,9.65-26.71,12.04,10.71-14.11,20.01-28.26,25.6-45.19h-.01Z"/>
  <path class="st1" d="M151.92,604.16c1.57,1.64,2.7,6.33,3.76,8.56,3.18,6.76,6.89,13.45,10.66,19.91,15.38,26.33,45.33,56.56,69.75,74.52.57,1.46.05,2.68-.33,4.12-6.93-4.07-13.55-10.52-19.5-15.93-26-23.69-47.12-49.71-62.74-81.32-1.64-3.31-2.8-6.27-1.6-9.86Z"/>
  <path class="st1" d="M364.4,570.39c-1.82-2.83-3.97-5.77-5.2-8.93-.43-1.08-1.15-2.37-.67-3.45,3.31,1.65,4.94,5.08,6.76,8.12l1.25-1.91c2.67,4.58,5.74,8.63,9.32,12.53,12.6,10.11,26.03,17.84,41.55,22.6-3.85-.32-7.65-.82-11.48-1.37-4.13-.51-8.37-.88-12.21-2.59-13.22-3.09-23.27-14.28-30.81-24.85l1.49-.16h0Z"/>
  <path class="st1" d="M874.22,612.2c.07.07.16.12.21.2.46.64.6.91.53,1.7-.18,1.92-1.68,4.23-2.53,5.98-4.09,8.42-10.1,15.91-15.82,23.27-19.08,24.54-42.88,50.71-67.02,70.27-.14-.21-.32-.39-.41-.63-.03-.08-.24-1.55-.22-1.68.2-1.38,10.59-10.09,12.2-11.62,28.15-26.76,53.08-53.95,73.06-87.5h.01Z"/>
  <path class="st1" d="M434.06,147.61c4.85,2.01,12.37,9.6,16.9,13.04,10.99,8.38,24.46,14.64,37.64,18.69-.32,2.21-.62,4.27-1.38,6.39l-.68.26c-19.4-11.37-39.6-18.74-56.2-34.62l3.7-3.77h0Z"/>
  <path class="st1" d="M847.42,520.2c.38.24.14.04.49.81-10.94,29.05-65.35,72.9-91.36,90.57-.32-.83-.57-1.7-.84-2.54,1.29-3.32,6.9-5.11,9.79-7.14,8.33-5.91,16.43-12.16,24.28-18.7,21.92-18.58,41.38-39.34,57.66-63.01h-.01Z"/>
  <path class="st1" d="M180.56,517.53c2.27,1.1,12.28,18.03,14.88,21.52,3.53,4.74,7.52,9.3,11.42,13.75,11.83,13.47,24.38,26.44,38.6,37.42,5.56,4.29,11.36,8.27,17.12,12.28,2.06,1.44,5.47,3.19,7.11,5.01.88.97.33,1.91.12,3.07-.1.03-.2.07-.3.08-4.16.38-39.35-29.62-44.88-35.02-14.05-13.73-26.7-28.43-37.53-44.83-2.4-3.63-6.48-8.79-6.53-13.27h.01Z"/>
  <path class="st1" d="M593.24,148.7c1.31.77,2.51,2.28,3.59,3.37-5.94,3.96-11.23,8.71-17.33,12.51-12.93,8.06-26.75,14.43-40.13,21.68-.53.38-.16.19-1.19.26-1.18-1.83-1.4-4.69-1.82-6.82,21.58-4.43,40.25-17.17,56.89-30.99h0Z"/>
  <path class="st1" d="M267.42,746.63c2.01,12.73,7.05,27.34,10.77,39.76,3.1,10.32,5.7,20.81,9.3,30.98,2.2,6.2,5.3,12.06,7.5,18.26l.19.57c-3.11-3.59-5.29-8.52-7.4-12.79-9.58-19-16.01-39.43-19.08-60.48-.8-5.31-1.67-10.94-1.29-16.31h0Z"/>
  <path class="st1" d="M206.37,803.9c-14.65-14.63-28.69-28.84-41.21-45.37-14.33-18.92-28.27-41.11-36.51-63.44-.6-1.62-2.18-4.16-1.94-5.81,21.61,46.94,44.13,75.99,80.46,112.48l-.78,2.14h-.02Z"/>
  <path class="st1" d="M729.69,205.49c.76-.28.37-.25,1.13-.13l-.26.65c-5.65-1.02-8.4-6.23-11.73-10.42-.7.85-1.21,1.5-2.12,2.15-.83.59-.83.37-1.75.2-1.69-1.34-2.55-3.07-3.59-4.9-1.14,1.11-1.45,1.49-3.02,1.94-.89-.31-1.45-.25-1.9-1.1.89-.27,1.37-.25,2.24.02.29.09.58.19.86.28.8-1.67-2.87-13.1-3.59-15.5-3.08-10.29-7.75-19.32-15.24-27.06-1.55-1.6-3.02-3.34-4.99-4.41l-.65.29.26,1.02-.33.36c-.17-.12-.35-.23-.51-.37-.89-.88-1.42-1.79-1.43-3.01l.86-.32c4.59.82,10.98,9.7,14,13.19.43-.16,1.07-.44,1.5-.54,1.31-.29,1.57-.11,2.63.55.55,1.09.93,1.84,1.03,3.09l-.96-.07c.02,1.65,5.84,9.44,6.98,11.72,2.56,5.08,5.19,10.88,6.91,16.31.56,1.76.7,3.58,1.22,5.36l.77.02,1.17-1.21c.29,1.16.27,1.92,1.15,2.77.62.6,1.21,1.17,1.53,1.99.88,1.14,1.01,1.54,2.36,1.98l1.75.52c.38,2.01,2.2,3.25,3.69,4.61h.01Z"/>
  <path class="st1" d="M372.49,773.13c7.67,7.71,13.41,20.71,21.36,27.09.03.21.06.43.1.65.42,2.31,2.16,4.1,2.27,6.51-.46.34-.81.61-1.34.84l-.89-1.08c-3.55-3.22-6.48-7.46-9.59-11.12l-.97.33,1.16.98-.36.48-1.36-.78-.66.31c-4.7-3.01-12.03-11.78-16.08-16.08,1.19-1.59,2.18-3.26,3.17-4.98,1.47,2.23,2.86,4.62,4.84,6.42,2.54.12,5.85,5.85,8.06,7.55-2.27-3.06-4.97-6.18-6.63-9.61l.59-.28-3.67-7.21h.01Z"/>
  <path class="st1" d="M468.17,743.59c-.51-.4-.25-.16-.87-.99-1.85-2.5-5.51-8.1-5.03-11.31,1.19-.62,1.63-.39,2.98-.22,1.33.31,2.63.59,3.91,1.05,2.91.71,13.93,18.15,16.02,21.6.37.62.74,1.22,1.1,1.84l-3.13.41-1.02-.89-.7-.11-1.39,1.64c-.47-.18-.84-.3-1.28-.58-1.26-.81-2.99-4.2-3.24-5.69-.03-.19-.02-.38-.04-.59l-.47.88-.82.08c-2.2-2.25-4.11-4.66-6.04-7.14h.01Z"/>
  <path class="st1" d="M616.42,125.78c-2.25-1.75-4.06-5.77-6.8-6.34l-.28.53.74,2.24-.2.16c-1.11-1.23-1.67-2.16-2.33-3.68l.25-.47c1.49.22,3.29,1.36,4.61,1.43,4.94.25,4.81-2.7,10.24.77.44-.25,1.56-1.05,2.04-1.06,4.17-.11,14.32,6.13,19.45,5.1-1.1.45-2.04.87-3.23,1.05,2.76,3.21,5.19,6.37,7.51,9.9-1.62-.15-4.14-2.73-5.86-3.57l.48.67c-4.68-2.37-9.81-9.25-15.23-9.41-.77.12-1.15-.03-1.89-.23-1.78-.65-4.29-2.73-6.14-2.57v1.19l.41.37c2.04,2.63,4.53,4.78,6.62,7.35-2.05-1.09-4.2-2.14-6.12-3.44-.15.06-.3.12-.46.17-1.56.52-2.39.51-3.83-.15h.02Z"/>
  <path class="st1" d="M740.18,213.29c-.98-.4-1.89-.87-2.83-1.35-.48-1.85,2.53-4.57,3.12-6.53.47-1.58.23-3.92.24-5.57l.44-.14,2.59,1.96.45-.34.54.85c.54.84,1.08,1.21,1.76,1.9.08.08.11.19.16.28.83.85,1.82,2.27,2.96,2.6,1.32.44,1.86.69,2.73,1.78-.02.38.02.96-.09,1.32l-1.45,3.75-.51.68-.75-.93-.75-.06c-1.55,1.75-2.97,2.8-5,3.94l-.24.14-.56.5c-.25-.05-.51-.1-.75-.15-1.41-.34-2.64-1.46-3.27-2.74-.39-.8-.26-.58,0-1.49l1.22-.38h-.01Z"/>
  <path class="st1" d="M374.13,684.65c1.71,1.4,8.73,12.73,9.84,15.12l-2.93,4.63-1.65-5.34c.22,1.73.47,3.46.64,5.19.14,1.4-.12,1.71-.98,2.73-1.15-.37-.98-.61-1.51-1.63-1.02,1.63.13,4.03-2.42,7.66-2.7-7.28-2.27-16.96-2.2-24.67.92,3.16,1.03,6.51,2.02,9.63.53,1.66.92,3.33,1.33,5.01.65-2.16-1.85-14.91-2.16-18.34h.01Z"/>
  <path class="st1" d="M457.62,736.91c-.04-1.45-.23-2.62.65-3.87h.89c3.07,3.05,4.74,7.81,7.27,11.37l4.36,5.68c2.1,1.78,3.84,3.6,5.59,5.71-2.13-.58-5.9-1.14-7.27-2.99-.09-.12-.15-.25-.22-.38-.17-.97-.05-.54-.47-1.59-.43-1.07-.08-.7-1.14-1.15-.25,1.06-.22.62-.17,1.73.01.26.04.53.05.79-.56.13-1.06.28-1.65.27-1.47-.02-2.68-.73-3.67-1.76-3.86-4.05-4.27-8.53-4.22-13.81h.01Z"/>
  <path class="st1" d="M268.09,223.68c12.01-9.3,24.62-17.93,36.36-27.56,2.89-2.38,6.97-8.62,10.51-9.06,1.08.65,1.23.8,1.84,1.91-1.05.92-2.28.15-3.28.98-2.45,2.03-4.51,4.75-6.98,6.88-6.95,6.02-14.39,11.56-21.67,17.19-4.89,3.78-9.85,8.08-15.12,11.29-.54-.87-.83-1.07-1.66-1.63h.01Z"/>
  <path class="st1" d="M565.54,912.15c-13.67-3.07-36.98-17.09-44.53-28.61-1.15-1.76-1.94-3.76-2.21-5.84l.49-.75c.83.54.93.76,1.45,1.57,7.46,11.69,20.1,21.17,32.54,27.1-2.19-2.03-4.4-3.88-6.79-5.66l.54-.58c6.01,4.81,11.78,8.97,18.5,12.75h.01Z"/>
  <path class="st1" d="M243.37,229.47c2.18,1.92,4.38,4.44,7.42,4.65.16.01.32,0,.49.01l.22.76c-2.75.65-4.1-1.5-6.33-2.71-.85-.47-.84-.56-1.81-.27l.54,1.01c3.63,2.4,4.47,3.15,8.88,2.75l.29.59c-1.58.65-3.81.4-5.51.42l.46,1.11c-1.03.84-1.73.96-3,1.21l-.27.07.09.3-.4.62c-1.61.38-2.45,1.11-3.69,2.18l-.49.43c-.91-.38-1.38-.59-2.38-.63-.28.68-.48,1.22-.61,1.95-.04.22-.07.46-.11.68-1.14.67-.54.5-1.84.52.31-.6.5-1.25.71-1.88-.69-1.7-2.19-2.42-3.64-3.47l-.07-.63c3.46-3.42,7.11-6.77,11.04-9.65h.02Z"/>
  <path class="st1" d="M644.15,124.45c10.8,4.54,23.54,7.55,31.77,16.36-1.72-1.08-3.44-2.34-5.27-3.2-.06-.02-.12-.03-.17-.06-4.95-3-10.16-5.64-15.34-8.25l-2.08-.78c2.2,4.58,5.31,8.72,7.2,13.4-3.54-4.24-7.48-7.99-10.8-12.44l-.68-.04-.64.69c.67,1.87,1.52,3.7,1.39,5.73l-.64.03-.48-.49c-2.32-3.53-4.76-6.68-7.51-9.9,1.18-.19,2.13-.61,3.23-1.05h.01Z"/>
  <path class="st1" d="M724.23,185.16l-.1-.54,3.58,3.23.8-.16c.13.21.26.43.4.64,1.08,1.64,2.57,2.11,3.09,4,.06.21.21.38.31.58l.04.83-1.11.5-.37,2.14-.6-.06-.85,1.58c-.11,2.06,0,3.98.22,6.03.11,1.01.09.58.04,1.57-1.5-1.37-3.31-2.59-3.69-4.61l-1.75-.52c-.05-1.91-.32-3.85-.51-5.75l-.28-3.96-.95-3.68,1.72-1.82h.01Z"/>
  <path class="st1" d="M690.49,716.25l1.09,2.11c-.71,2.03-1.62,4.14-1.99,6.26-3.57,9.91-9.84,19.16-16.04,27.58l-.68.04c-.23-1.81.31-3.38,1.06-5.01,1.7-3.76,4.56-6.89,6.63-10.46,3.84-6.58,6.89-13.56,9.94-20.53h-.01Z"/>
  <path class="st1" d="M353.17,564.56c.97-3.82-3.57-6.67-2.86-10.2,11.21,17.63,17.42,28.93,35.07,41-6.49-2.6-11.52-5.76-16.22-10.98-1.53-1.7-5.05-6.78-7.08-7.15-1.28-1.19-8.27-11.2-8.92-12.65h0Z"/>
  <path class="st1" d="M655.14,129.3c5.17,2.61,10.39,5.25,15.34,8.25.05.03.11.04.17.06-.35,1.93.48,3.02,1.59,4.65,1.4,2.01,4.22,4.83,4.32,7.28l-.52.03c-1.88-2.6-3.7-5.63-6.22-7.63l-.81-.09-.64,1.33-1.04.86,1.63,2.19-.62-.49.65.73-.37-.04-.44-.7-.5-.11c-3.42-3.74-10.84-11.98-12.55-16.3h0Z"/>
  <path class="st1" d="M334.08,159.41l.03.59c-1.28.75-2.16,1.78-3.15,2.85-1.22.32-1.67-.13-2.78-.62l-.23.21.26,2.89c-1,.84-1.13.55-2.38.45-2,1.62-3.54,4.22-5.08,6.29l-.59-.26c.18-1.2-.37-1.5-1.03-2.48,1.57-.17,2.74-.38,4.18-1.06l.29-.93c-3.34-3.78-2-1.49-4.63-2.32v-.82c1.61-2.25,3.92-3.98,6-5.77,1.51-1.29,3.99-3.98,6-3.83l-.18.53c1.03,1.46,2.32,2.81,3.28,4.28h0Z"/>
  <path class="st1" d="M147.55,649.73c.25,3.32-11.84,34.02-14.09,38.78l-.66.02-2.04-4.41c6.26-11,11.33-22.96,16.79-34.39Z"/>
  <path class="st1" d="M425.31,897.65c1.25-.89,2.31-1.87,3.42-2.93.77.78,1.34,1.27,2.33,1.74l-2.24,2.63c1.87.2,2.43.87,3.68,2.29.08.09.14.2.21.3-6.25,4.51-12.99,7.67-20.23,10.25,2.91-2.41,6.32-4.22,9.14-6.64.03-.2.04-.41.08-.62.38-2.16,1.76-5.83,3.6-7.03h0Z"/>
  <path class="st1" d="M519.42,872.45l1.06-.41c1.71,1.93,3.86,4.96,6.03,6.32,6.12,8.03,12.85,14.45,20.51,21.04l-.54.58c-10.18-6.68-22.36-16-27.07-27.52Z"/>
  <path class="st1" d="M302.27,670.59c-1.34-5.78-6.91-26-5.36-31.36,1.1,2.83,1.23,6.02,1.96,8.99,3.08,12.7,5.08,25.34,11.13,37.07-1.38.27-1.45.37-2.67-.27-2.96-4.04-3.94-9.63-5.06-14.42Z"/>
  <path class="st1" d="M504.45,775.47c9.75-2.71,22.71,1.61,31.56,5.73-10.33-1.28-19.69-5.06-30.31-4.11-5.56,2.15-11.9,3.28-17.71,4.61,5.37-2.69,10.59-4.91,16.46-6.22h0Z"/>
  <path class="st1" d="M489.07,755.94c-2.66-2.68-14.2-18.81-15.69-22.21l.52-.19c5.87,3.31,12.85,14.16,17.66,19.65-.87.9-1.7,1.79-2.49,2.75h0Z"/>
  <path class="st1" d="M311.16,180.59l.24.97c-1.78,2.32-5.2,7-7.96,7.79-.83-1.63-1.4-3.14-3.08-3.99-1.62.26-2.51,1.29-3.68,2.33l-.57.52c2-4.26,8.25-9.36,11.93-12.35-.59.96-.88,1.38-1.02,2.51.61,1.13,1.11,2.16,2.47,2.55,1.07.31.85.23,1.65-.34h.01Z"/>
  <path class="st1" d="M254.66,416.32c-6.83-4.12-25.94-18.69-28.13-25.96,3.2,1.72,6.1,5.82,8.95,8.25,5.81,4.96,12.1,9.4,18.11,14.13l-.95-.26c-1.16-.33-2.19-.81-3.28-1.35,1.93,1.49,4.23,2.92,5.3,5.19h0Z"/>
  <path class="st1" d="M700.13,680.49c1.61-9.46,2.03-22.08,4.61-30.79.3,8.2-.09,16.17-.87,24.32-1.01,2.44-1.36,5.12-1.85,7.7-.48.67-.74.97-1.41,1.48l-.47-2.71h-.01Z"/>
  <path class="st1" d="M339.22,738.47c3.4,5.51,10.33,12.21,11.69,18.43l-.38,1.36c-2.38-1.45-4.76-3.91-6.51-6.08.35-.75.28-.43.35-1.27.19-2.11-3.89-5.75-5.21-7.4-.39-2.11-.88-3.07.05-5.05h.01Z"/>
  <path class="st1" d="M732.32,192.9c1.56.25,2.87,1.51,3.85,2.76.27.34.53.77.77,1.13.17,2.57.52,5.2.53,7.77-.79,1.45-1.39,2.83-2.79,3.8l-.78-.35c-1.38-2.97-1.62-7.82-.98-11.03.12-1.2-.2-2.09-.54-3.24l-.04-.83h-.01Z"/>
  <path class="st1" d="M546.42,742.8c1.51-.88,1.82-2.18,3.64-2.67,1.14,3.2,2.17,6.38,3.09,9.65-1.73.72-3.48,1.42-5.23,2.09-.71-1.97-1.46-3.95-2.04-5.97l-.46-1.99,1.01-1.1h-.01Z"/>
  <path class="st1" d="M466.45,137.29c-2.08,4.06-9.62,16.61-9.4,20.51l-1,.24c-.92-.74-1.37-.99-1.34-2.31.08-4.15,6.89-12.82,8.79-17.13l2.95-1.32h.01Z"/>
  <path class="st1" d="M704.32,583.4c1.21,7.09-3.22,17-6.57,23.07-1.36-4.74,4.13-18.64,6.57-23.07Z"/>
  <path class="st1" d="M714.57,174.62c3.59,3.77,6.68,7.14,7.94,12.36l.95,3.68.28,3.96c.18,1.9.46,3.84.51,5.75-1.35-.46-1.48-.84-2.36-1.98.35-2.06.37-3.51-.17-5.57l-1.12-4.26c-1.62-4.86-3.76-9.35-6.02-13.93h0Z"/>
  <path class="st1" d="M556.18,734.86c2.75-.45,4.03-.67,6.33,1.09,1.39,1.06,2.7,2.95,2.71,4.77,0,.55-.19,1.04-.35,1.55-.99.69-1.36.92-2.64.61-1.53-.38-2.71-2.39-3.59-3.59-.31-1.71-1.47-3.03-2.45-4.42h0Z"/>
  <path class="st1" d="M746.85,149.57c.59.24,1.15.54,1.68.88,3.21,2.08,19.11,14.89,19.69,17.5-4.4-3.41-19.58-13.24-22.07-16.61l.7-1.78h0Z"/>
  <path class="st1" d="M471.49,715.8l.65-.46c1.27,1.41,2.54,3.19,4.16,4.16l.83-.4c2.85,3.87,5.72,7.75,8.76,11.48-2.97-1.75-5.91-3.64-9.08-5.01-.78-1.26-1.78-2.35-2.72-3.48.82-.64.47-.21.92-1.37-.6-1.97-2.17-3.4-3.5-4.92h-.01Z"/>
  <path class="st1" d="M622.89,771.46c.97-3.27,4.13-17.32,5.67-19.21,1.01,7.26-1.85,15.76-4.62,22.37l-1.05-3.16Z"/>
  <path class="st1" d="M573.14,717.44c0-.4.16-.88.25-1.28l1.94-1.09c1.9,1.91,3.92,3.75,5.39,6.02,2.1,2.62,3.43,4.92,4.45,8.11-.93.04-1.41-.66-2.06-1.3-1.76-1.68-3.19-3.99-4.63-5.95-1.81-1.47-3.57-3.01-5.35-4.51h.01Z"/>
  <path class="st1" d="M619.8,121.47v-1.19c1.84-.17,4.35,1.92,6.13,2.57.73.2,1.12.35,1.89.23,3.51,2.2,6.11,5.08,8.47,8.42-2.53-1.26-5.04-2.51-7.42-4.03-2.83-1.82-5.47-4.57-8.66-5.62l-.4-.37h-.01Z"/>
  <path class="st1" d="M432.67,838.23l1.37-.47c.64.4,1.41,1.1,2.16,1.15,3.61,3.42,8.36,4.7,12.31,7.53l-.5.82c-6.65-1.42-10.94-3.94-15.34-9.04h0Z"/>
  <path class="st1" d="M532.39,749.61c1.62,2.16,2.42,4.64,3.37,7.14-2.08.57-4.18,1.09-6.24,1.74.03-2.62-.04-5.27.15-7.89l2.7-.99h.01Z"/>
  <path class="st1" d="M581.27,714.76c3.4,4.54,6.08,8.41,7.25,14.11l-.3.44c-3.51-3.98-4.95-9.06-9.1-12.67,1.08-.54,1.53-.83,2.16-1.88h0Z"/>
  <path class="st1" d="M538.51,750.37c-.1-1.55.09-2.4.62-3.87l.88-.57c1.34.65,2.04,1.71,2.56,3.14.51,1.43.6,3.16-.07,4.54-.4.84-.96,1.18-1.71,1.67-1.08-.02-1.03.18-1.87-.62.18-1.67.13-2.69-.39-4.3h-.01Z"/>
  <path class="st1" d="M227.84,243.99c1.03-.17,1.74-.04,2.63.58,1.25.85,1.13,1.36,1.34,2.75-.58.9-1.26,1.65-1.96,2.46-.29-.1-.9-.33-1.17-.38-.85-.18-.45.08-1.36-.24-1.3-.46-2.01-1.07-2.53-2.29.73-1.5,1.7-1.92,3.05-2.86h.01Z"/>
  <path class="st1" d="M293.19,230.85c1.6,1.33,3.3,2.36,4.53,4.06-2.89.59-6.13,1.26-8.67,2.79-.94.57-1.01.72-2.16.81,1.12-3.28,4.92-4.27,6.05-7.01.09-.21.16-.44.24-.65Z"/>
  <path class="st1" d="M297.74,234.91c.92,1.16,1.77,2.32,2.56,3.58-3.98,1.21-7.26,4.11-11.31,5.49,2.61-3.25,5.56-6.37,8.75-9.07h0Z"/>
  <path class="st1" d="M351.71,139.41c.29,0,.59-.03.88,0,1.37.15,2.12.65,2.76,1.76-.71,1.87-1.98,2.36-2.69,4.36-1.64-.44-3.63-.81-4.67-2.18.65-1.73,2.32-2.75,3.7-3.96h.01Z"/>
  <path class="st1" d="M571.06,720.51c.41-.96.95-1.69,1.58-2.51,3.12,3.07,5.9,6.17,8.11,9.96l-.1.57c-3.79-2.09-6.04-5.94-9.59-8.02h0Z"/>
  <path class="st1" d="M491.61,874.8c1.73-1.44,2.48-2.24,4.84-2.17-3.91,5.85-7.65,9.33-13.52,13.12,3.27-3.44,6.58-6.62,8.68-10.95Z"/>
  <path class="st1" d="M586.34,881.01c3.55,6.66,6.92,10.43,11.57,16.1-3.8-2.25-8.84-7.52-12.03-10.84l.47-5.27h-.01Z"/>
  <path class="st1" d="M533.13,748.06c1.05-.39.52-.32,1.74-.17.96.12,1.69.09,2.66-.07.31.84.58,1.76.97,2.55.53,1.61.59,2.62.39,4.3l-.47-.19-1.06.81c-1.02-.46-3.04-5.59-3.98-6.88-.09-.12-.17-.23-.26-.34h0Z"/>
  <path class="st1" d="M542.61,743.31c1.27-.69,2.42-.7,3.81-.51l-1.01,1.1.46,1.99c-.14,1.2-.16,2.41-.02,3.61.17,1.51.35,2.3-.37,3.72l-.9.09c-1.17-3.01-1.19-6.77-1.95-10.01h0Z"/>
  <path class="st1" d="M207.15,801.77c2.63,2.22,5.9,4.36,6.7,7.92-1.04.3-1.29.05-2.19-.49-1.93-1.16-3.72-3.64-5.29-5.29l.78-2.14h0Z"/>
  <path class="st1" d="M245.51,161.55c.71,1.29,1.36,2.59,2.3,3.71-2.48,2.94-4.69,6.17-6.92,9.31.91-4.61,3.22-8.58,4.62-13.03h.01Z"/>
  <path class="st1" d="M203.54,111.57c.93,1.06,1.92,2.01,2.34,3.4-2.45,2.72-5.21,4.82-8.18,6.95,1.93-3.49,4.24-6.67,5.84-10.36Z"/>
  <path class="st1" d="M774.97,228c.5.43.55.36.8.96.46,1.07.44,2.45-.02,3.52-1.26,3.01-4.43,4.67-7.28,5.76-.2-.3-.27-.68-.39-1.02,4.43-2.58,5.07-4.59,6.89-9.22h0Z"/>
  <path class="st1" d="M770.62,225.05l1.25,1.11c-.07.63-.04.65-.31,1.33-1.04,2.51-5.22,4.77-7.7,5.45l-.71.08c2.34-2.79,4.95-5.35,7.49-7.97h-.01Z"/>
  <path class="st1" d="M268.09,223.68c.83.56,1.12.76,1.66,1.63-4.38,3.17-9.01,5.41-13.94,7.58,4.13-3.03,8.14-6.2,12.29-9.21h-.01Z"/>
  <path class="st1" d="M489.07,755.94c.8-.97,1.62-1.86,2.49-2.75,1.37,1.55,3.06,3.05,3.54,5.1l-.26.87c-1.15.35-2.13.12-3.22-.43-1.34-.67-1.85-1.57-2.55-2.8h0Z"/>
  <path class="st1" d="M498.81,753.77c1.78,1.8,3.53,3.66,5.42,5.36-3,0-5.85.47-8.23-1.69,1.17-1.2,1.96-2.24,2.82-3.68h-.01Z"/>
  <path class="st1" d="M763.52,219.89c1.08.88,1.87,1.41,2.23,2.82-.52,2.85-2.98,4.43-5.07,6.19l-1.16.04c2.05-3.09,3.38-5.33,4.01-9.06h0Z"/>
  <path class="st1" d="M309.83,671.15c-1.07-4.83-1.51-10.03-1.44-14.97,1.47,2.76,1.7,7.31,2.51,10.48l.76,3-1.83,1.5Z"/>
  <path class="st1" d="M520.59,900.19c1.79,2.01,3.96,3.78,5.93,5.62-2.09.16-4.12.57-5.97-.53-.76-1.68-.25-3.34.03-5.09h.01Z"/>
  <path class="st1" d="M429.15,673.44c.79-.35,2.05-1.21,2.87-.89,1.86.73,2.74,2.99,3.59,4.64.52,1,1.1,1.87,1.74,2.8-2.25-1.74-4.41-3.51-7.01-4.71l-.92-.4-.27-1.43h0Z"/>
  <path class="st1" d="M752.22,210.07c1.22.6,2.51,1.56,2.96,2.91.51,1.51.11,2.8-.62,4.17l-2.18-1.04c.54-1.02,1.36-1.99,1.17-3.15-1,.19-1.85.48-2.79.86l1.45-3.75h.01Z"/>
  <path class="st1" d="M555.65,742.61c.76,1.82,1.42,2.79,1.19,4.78l-.85,1.17c-.64-.1-1.21-.02-1.68-.54-.84-.96-1.01-2.5-1.29-3.72l2.62-1.68h0Z"/>
  <path class="st1" d="M312.24,656.08c-.66-4.62-1.1-9.17-1.4-13.83,1.31,4.24,2.36,8.43,3.22,12.77-.71.69-.82.77-1.82,1.04h0Z"/>
  <path class="st1" d="M481.43,754.98l.7.11,1.02.89,3.13-.41c.99.89,1.99,1.35,2.15,2.71-2.35.61-6.09-.92-8.38-1.67l1.39-1.64h0Z"/>
  <path class="st1" d="M502.91,363.25c.14,1.52.32,3.28-.16,4.76-.56,1.66-1.44,2.02-2.83,2.84-.05-.26-.13-.53-.16-.8-.32-2.97,1.18-4.87,3.16-6.8Z"/>
  <path class="st1" d="M785.49,234.59c.69.37,1.34.89,1.97,1.34.29.74.58,1.02.36,1.84-.54,2.04-2.43,2.86-4.13,3.81l-1.14-.26c.44-.86.2-.58.86-1.2.54-.52,1.26-1.04,1.7-1.64,1.01-1.36.57-2.33.36-3.88h.01Z"/>
  <path class="st1" d="M202.97,266.41c1.15.59,1.57,1.25,2.36,2.23.34,1.88.14,1.86-.85,3.39-.37.06-.76-.07-1.13-.13-.4-.51-.68-.78-.95-1.41-.67-1.54-.08-2.7.57-4.07h.01Z"/>
  <path class="st1" d="M752.39,216.1l2.18,1.04c-1.85,2.91-4.02,4.37-6.92,6.06,1.61-2.36,3.18-4.74,4.76-7.12h-.01Z"/>
  <path class="st1" d="M212.5,256.37c.89,1.66,1.81,3.3,2.73,4.94l-1.42.51-1.81-1.12c-.47-.76-.81-1.27-.89-2.18-.08-.89.81-1.51,1.39-2.15h0Z"/>
  <path class="st1" d="M196.47,274.59c.99.6,1.71,1.43,2.5,2.25.35,1.57.21,1.82-.34,3.36-.74-.07-.66.1-1.08-.44-1.16-1.49-1.17-3.39-1.08-5.17h.01Z"/>
  <path class="st1" d="M187.84,286.64c.56.21,1.26.52,1.67.94,1.02,1.04.95,1.78.97,3.12-.78.37-1.27.5-2.14.52-.89-1.3-.54-3.01-.51-4.57h0Z"/>
  <path class="st1" d="M283.72,200.28c.87-.26,1.79.24,2.05,1.11.25.87-.24,1.79-1.11,2.05-.87.25-1.79-.24-2.04-1.11-.26-.87.24-1.79,1.11-2.05h-.01Z"/>
  <g>
    <path class="st0" d="M522.11,120.35l-.3-.9h0s.3.9.3.9l-.39.34s.03.1.04.15c0,0,.01.02.02.03-.02-.06-.03-.12-.05-.17l.39-.34Z"/>
    <path class="st0" d="M514.11,88.17h0s0-.03,0-.03h0c2.25,13.28,4.77,26.68,7.83,39.8h0c-3.06-13.11-5.58-26.5-7.83-39.77Z"/>
    <path class="st1" d="M574.24,124.3c-14.35-17.21-29.8-33.98-47.23-48.14-3.55-2.88-8.14-7.11-12.35-8.81-.55.96-.01,3.88.08,5.09l-.02-.02s0,.02,0,.02c0,0,0,0,0,0,.06.44.11.89.17,1.33.49,3.64.95,7.28,1.39,10.92.06.46.12.93.18,1.39l-1.04,2.14h0l1.05-2.16c1.18,8.36,2.58,16.58,4.36,24.84,1.25,5.76,3.02,11.79,3.72,17.63-1.44-1.75-1.99-4.61-2.6-6.95,0,.02,0,.04,0,.05.6,2.33,1.16,5.16,2.59,6.9,2.08,5.04,2.68,11.87,3.82,17.25,2.1,9.77,4.35,19.51,6.76,29.2,20.93-6.52,39.07-16.05,56.41-29.48-6.16-6.63-11.5-14.26-17.3-21.23Z"/>
  </g>
  <path class="st1" d="M171,302.45h0s0,0,0-.01l.96-1.82.3-1.46-.98-.17c-2.23,1.63-2.71,5.74-3.76,8.23l.74,1.98c.71-1.48.57-1.68,2.09-2.21,3.4.43,5.07,3.63,8.34,4.08.7-.86.82-1.3,1.12-2.34-2.24-1.74-7.68-3.92-8.81-6.28Z"/>
  <g>
    <path class="st0" d="M610.12,167.48s0,0,0,0c0,0,.01,0,.02-.01h-.02Z"/>
    <path class="st1" d="M721.23,289.48c-7.22-15.76-16.08-30.71-26.44-44.61-19.25-25.96-55.89-62.3-84.67-77.38-3.85,3.15-7.59,6.47-11.37,9.7,7.41,4.43,14.94,9.67,21.37,15.48,29.75,20.09,59.5,59.67,77.76,90.28,2.46,4.13,5.04,8.3,7.16,12.61,1.63,3.32,2.8,6.9,4.73,10.06l.52-.05c2.78-7.48-16.91-36.6-16.73-38.81,6.69,6.53,16.37,23.72,20.97,32.01l.86.14.82-.74c.9-5.33-5.94-13.92-8.36-18.62,3.81,4.54,7.46,9.11,10.51,14.21l2.88-4.28Z"/>
  </g>
  <path class="st1" d="M240.09,369.56c7.3-36.36,23.69-70.75,45.43-100.71,5.33,12.66,12.26,25.65,20.04,36.98,6.17,8.98,12.55,18.12,19.55,26.48,25.89,30.96,60.47,56.9,96.56,74.76,9.36,4.63,20.09,10.45,30.41,12.36-1.96,4.27-3.81,7.77-7.13,11.15-51.18-13.16-98.35-47.46-131.67-87.9-7.52-9.13-13.05-19.63-20.3-28.82l-.53-.67h0c-4.27-7.55-11.99-19.62-13.57-27.85-.11-.6-.27-1.18-.4-1.78l-.28-1.29c-1.05,1.56-1.55,2.35-1.2,4.32,1.01,5.71,9.02,22.27,12.17,27.26h.01c3.91,7.7,9.06,14.87,14.06,21.89,24.99,35.09,57.56,62.45,95.72,82.31,8.35,4.34,16.72,8.61,25.7,11.54,5.92,1.87,11.92,3.46,17.99,4.78-17.41,7.39-55.43,10.19-75.3,12.54,5.92,4.93,13.75,8.06,20.66,11.37,10.48,5.02,20.92,10.29,31.58,14.91,8.43,3.65,17.31,6.68,25.45,10.94,1.11,3,2.13,6.04,3.58,8.89-15.81-6.37-32.22-11.46-48.2-17.42-28.69-10.75-56.83-22.9-84.32-36.4-16.75-8.19-33.49-16.47-48.83-27.15.25-1.62,1.01-3.97.45-5.49-1.31,1.37-1.99,2.91-2.8,4.6.15-6,.05-11.58-.86-17.53-.76,4.32-1.14,9.01-2.74,13.1l-.48.18c-.91-5.06.21-10.79.9-15.85l-.66-.24c.48-2.94,1.01-5.86,1.61-8.78l-.44-.2c-1.64,2.93-1.36,7.58-3.22,10.07l-.37-.58c-1.6,3.76-1.19,8.02-3.27,11.84l-.59.13c-3.48-16.71,12.96-62.47,19.5-78.55-10.31,14.95-15.78,31.72-23.08,48.09-2.93,6.58-6.65,12.97-10.24,19.2l-.39-.35c-.62-5.47,4.28-13.99,6.41-19.33-3.15,4.46-5.06,10.02-8.53,14.13l-.71.03c-.04-.19-.09-.38-.11-.58-.57-5,1.48-11.43,2.48-16.41Z"/>
</svg>